<?xml version="1.0" encoding="utf-8"?>
<!-- Generator: Adobe Illustrator 16.0.0, SVG Export Plug-In . SVG Version: 6.00 Build 0)  -->
<!DOCTYPE svg PUBLIC "-//W3C//DTD SVG 1.1//EN" "http://www.w3.org/Graphics/SVG/1.1/DTD/svg11.dtd">
<svg version="1.1" id="Layer_1" xmlns="http://www.w3.org/2000/svg" xmlns:xlink="http://www.w3.org/1999/xlink" x="0px" y="0px"
	 width="2800px" height="2800px" viewBox="0 0 2800 2800" enable-background="new 0 0 2800 2800" xml:space="preserve">
<g>
	<g>
		<g>
			<path fill="#FDEAD9" d="M1609.2,893.1c-0.5-0.3-1.1-0.4-1.6-0.4c-12.3-10.7-27.5-15.1-44.3-11.8c-22.5,4.5-31.6,23.3-35,43.7
				c-1.4,0.1-2.8,1-2.9,2.8c-0.2,11-3.1,21.7,1.6,32.2c0.6,1.3,1.8,1.6,2.9,1.4c3.9,12.9,10.5,24.7,21.2,33.5
				c0.3,0.2,0.6,0.4,0.9,0.5c0.7,1.5,2.3,2.4,3.9,1.1c22.6-17.1,50-34.3,78.5-38.7c2.1-0.3,2.5-2.3,1.8-3.8c0.8-0.4,1.5-1.2,1.5-2.6
				C1638.8,929.3,1629.5,903.8,1609.2,893.1z"/>
			<path fill="#FDEAD9" d="M2229.2,1117.7c-11.2-15.1-28.4-23.6-47-19c-18.6,4.6-33.8,18.9-50,28.4c-0.4,0.2-0.7,0.5-0.9,0.8
				c-1-0.1-2-0.1-3.1,0.1c-3.8,0.6-2.2,6.3,1.6,5.7c5.2-0.8,9.4,6.6,11.5,10.2c4.2,6.9,7.4,14.5,10.6,21.9
				c3.2,7.4,6.2,14.9,9.8,22.2c2.4,4.7,5.1,9.8,9.6,12.9c7.4,5.1,15.4,4.5,22.7,1.3c0.8,1.2,2.3,2,3.9,1
				C2227.1,1186.2,2253.2,1149.9,2229.2,1117.7z"/>
			<path fill="#EBEAE6" d="M676.8,1133.1c0.5-0.9,0.6-2.1,0-3c-3.9-6-10-9.4-16.2-12.6c-8.4-4.3-16-10-24.6-14
				c-14.4-6.6-32.8-7.6-46.8,0.4c-0.8,0.5-1.6,1-2.4,1.5c-5.1,2.2-9.7,6-13.6,11.8c-12.6,18.9-6.7,41,4.7,58.6
				c10,15.4,29.2,33.4,49.2,26.3c1-0.4,2-0.8,3-1.3c0.3,0.1,0.5,0.1,0.8,0.1c0.5,0,0.9-0.1,1.3-0.3c0.6-0.2,1.2-0.6,1.6-1.2
				c7.6-11.1,13.8-23,20.1-34.9c2.9-5.4,6.1-10.5,9.7-15.3c4-4.5,8.1-8.9,12.3-13.2c0.8-0.8,1-1.9,0.7-2.8
				C676.8,1133.2,676.8,1133.2,676.8,1133.1z"/>
			<path fill="#EBEAE6" d="M1279.6,931.3c-2.3-20-13.8-39.5-32.5-48c-21.4-9.8-43.6-1-59.2,14.8c-0.7,0.1-1.5,0.5-2.1,1.4
				c-0.9,1.3-1.8,2.5-2.6,3.8c-5.4,6.5-9.7,13.9-12.5,21.6c-0.1,0.1-0.1,0.2-0.2,0.4c-3.6,8.6-7.3,17.7-6.6,27.3
				c-0.5-0.1-1.1-0.3-1.6-0.4c-3.2-0.9-5.3,3.8-2.3,5.4c1.7,0.9,3.3,1.8,4.7,3.1c1.6,1.4,3.6,0.7,4.6-0.6
				c26.9,6.4,54.9,10.2,73,33.7c1.1,1.5,3,1.5,4.3,0.8c0.7,0.2,1.4,0.2,2.2-0.1c1.7-0.8,3.4-1.8,4.9-2.9c1.2-0.6,2.3-1.3,3.3-2
				c0.1-0.1,0.3-0.2,0.4-0.3c5.6-3.8,10-9.1,13.3-15C1278.8,961.8,1281.2,945.5,1279.6,931.3z"/>
			<path fill="#FDEAD9" d="M1775.5,1309.2c-26.3-19.9-58.8-29.5-91.6-31.4c-9.8,3.1-20.6,2.5-30.4-0.5c-7.7,1.9-15.6,3-23.4,4.1
				c-14.1,2-28.3,3.7-42.2,7.2c-28.6,7.2-52.3,25.1-68.9,49.2c-15.5,22.5-23.2,49.2-27.8,75.9c-5,29.1-7.6,59.2-8.8,88.6
				c-1.3,32.7,1.8,65.9,13.1,96.8c9.1,24.8,22.9,48.2,47,60.6c21.9,11.3,47.8,13.8,72,13.4c24-0.4,49.4-3.5,71.9-12.3
				c46.3-18.1,79.4-60,101.6-102.9c11.8-22.7,20.8-46.9,27.5-71.6c6.2-22.7,10.6-46.5,11-70.1
				C1827.3,1374.2,1809.2,1334.6,1775.5,1309.2z"/>
			<path fill="#303531" d="M2290.4,1126.1c-3.1-21.8-11-42.5-25.7-59.1c-12.7-14.4-30.2-24-48.8-28.3c-40.6-9.3-83.2,7.5-111.3,37
				c-3.8,4-7.3,8.4-10.6,12.8c-30-30.9-64.5-56.7-102.6-77.5c-51.6-28.1-108.1-47.7-165.8-58.5c-57.2-10.8-116.8-12.6-173.9-0.2
				c-27.2,5.9-53.6,15.5-78.1,28.9c-7.2,3.9-14.1,8.3-20.9,12.9c0.1-1-0.2-2.1-1.4-2.8c-33.2-20.1-33.7-74.1-5.9-98.8
				c17-15.1,43.6-15.4,61.7-2.5c19,13.5,28.1,38.9,29.6,61.3c0.3,3.8,6.2,3.8,5.9,0c-1.6-23.4-10.5-47.6-28.6-63.3
				c-17.8-15.5-43.8-17.1-64.3-5.7c-35.7,19.8-39.1,75.9-13.2,104.6c3.4,3.8,7.5,6.9,11.8,9.5c0.2,0.1,0.4,0.2,0.6,0.3
				c-17.3,12.3-33.3,26.6-48.2,41.7c-22.5,22.8-42.6,48.1-60.8,74.4c-15.5,22.5-30.7,45.9-42,71c0.9,3.2,1.6,6.5,2.3,9.8
				c5.4-13.4,12-26.4,19.8-38.7c17.2-27.1,34.4-53.8,54.7-78.7c20.6-25.3,43.7-48.9,69.6-68.7c23.5-17.9,49.7-31.5,77.8-40.9
				c55.7-18.6,116.1-20.2,173.9-12.7c59.7,7.7,118.4,25.9,172.5,52.2c50.9,24.8,96.4,57.9,133.9,100.5c7,7.9,13.6,16.1,20,24.4
				c-0.1,0.1-0.2,0.2-0.3,0.3c-2.4,2.7,1.3,6.7,3.9,4.5c16.1,21.7,30.4,44.8,42.6,68.9c0,0.8,0.3,1.6,1,2.1
				c8.9,17.8,16.8,36.1,23.5,54.8c0.8,2.1,1.5,4.3,2.2,6.4c-2.7-1.1-5.4-2.7-8.2-4.7c-3.1-2.3-6,2.9-3,5.1c4.6,3.4,9.1,5.6,13.6,6.8
				c16.5,50.9,24,105.1,18.1,158.5c-8.4,74.7-13.9,150.5-30.1,224c-6.1,27.5-9.3,55.6-14.7,83.2c-5,25.6-10.8,53.2-24.9,75.6
				c-0.2,0.4-0.5,0.7-0.7,1.1c-2.1,3.2,3,6.2,5.1,3c14.1-21.5,20-48.1,25.2-72.9c5.7-27.7,9.4-55.7,14.7-83.4
				c6.9-35.7,13.3-71.1,17.6-107.3c4.5-37.4,8-74.8,12.4-112.2c3.5-29.4,4.4-58.4,1.1-87.9c-3-27.4-9-54.3-17.2-80.6
				c24.3,1.9,45.4-23.6,57.5-44.7c10.3-18,17.8-37.7,23.2-57.7C2289.1,1158.6,2292.6,1141.9,2290.4,1126.1z M2130.1,1131.4
				c15.6-15.9,36.6-29.6,58.9-31.9c21.5-2.2,41.6,12,46.2,33.1c7.6,34.8-25.1,75.2-61.4,69.1
				C2161.2,1177,2146.6,1153.5,2130.1,1131.4z M2278.4,1175.8c-5,17.9-12,35.4-21,51.7c-11.2,20.2-31.5,46.4-55,42.4
				c-7-21.2-15.5-41.9-25.4-61.9c37.4,3.1,68.4-35.3,64.7-71.7c-2.1-20.6-17.6-37.3-37.7-41.8c-25.8-5.8-52.8,10.5-71.5,26.7
				c-2.1,1.8-4,3.6-5.9,5.6c-2.5-3.2-5-6.4-7.5-9.6c-6.7-8.4-13.8-16.5-21.1-24.2c0.2-0.2,0.4-0.3,0.5-0.5
				c25.5-34.7,69-56.3,112.4-48.5c42.4,7.6,71.4,45.3,74.2,87.5C2286,1146.1,2282.4,1161.5,2278.4,1175.8z"/>
			<path fill="#303531" d="M1690.5,890.7c-3.7-26.7-14.2-52.8-32.6-72.8c-35.4-38.5-93.9-40.6-137.3-14.9
				c-21.9,13-41.1,31.1-52.5,54.1c-10.9,21.9-13.1,46.7-9.3,70.7c3.5,21.7,12.3,43.2,21.9,62.9c5.4,11.1,17.9,37.4,34.4,31.9
				c3.6-1.2,2.1-6.9-1.6-5.7c-8.1,2.7-15.1-8-18.9-13.5c-6.7-9.9-11.6-21-16.2-32c-9.4-22.9-16.6-46.6-15.5-71.6
				c2.7-56.5,54.8-102.3,109.4-107.7c35.7-3.6,70.2,12.3,90.6,41.8c11,15.8,17.5,34.4,20.9,53.2c1.7,9.5,2.5,19.1,2.2,28.8
				c-0.1,4.7-0.5,9.4-1.1,14c-0.3,1.9-0.6,3.7-1,5.5c-0.2,0.8-0.4,1.5-0.6,2.3c-0.3,1.1-0.5,1.4-0.5,1.4c-2.7-0.6-5.4,2.7-2.9,4.8
				c8.1,6.6,10.3-9.5,10.9-14C1692.7,916.8,1692.3,903.8,1690.5,890.7z"/>
			<path fill="#303531" d="M1661.7,1206.1c-6.9-1.9-12.7-6.4-14.1-13.3c5.6-4.4,10.2-10.3,13.5-17.8c1.5-3.5-3.6-6.5-5.1-3
				c-2.8,6.4-6.5,11.4-11,15.3c-1.7-0.3-3.6,0.6-3.5,2.7c-13.7,9.3-32.6,9.5-49.8,5.1c-11.4-2.9-22.5-7.9-32-14.9
				c-3.3-2.4-8.3-6.4-10.7-10.9c0.3-0.4,0.7-0.9,1-1.4c1.5-2.1-0.3-4-2.3-4.2c0-0.4,0.1-0.8,0.2-1.2c1-3.7-4.7-5.2-5.7-1.6
				c-0.7,2.5-0.5,4.9,0.1,7.2c-6.9,7.6-17.4,13-26.4,16.8c-3.5,1.4-2,7.2,1.6,5.7c9.5-3.9,19.8-9.3,27.5-16.8
				c2.2,3.4,5.3,6.4,8.2,8.9c10.2,8.6,23,14.3,35.8,17.8c0.1,0,0.3,0.1,0.4,0.1c-0.3,8.3-2.1,16.3-6.6,23.5c-2,3.2,3.1,6.2,5.1,3
				c4.8-7.6,7-16.2,7.4-25.1c16.3,3.4,33.8,2.3,47.3-5.6c2.6,7.8,9.4,13.2,17.6,15.5C1663.8,1212.8,1665.3,1207.1,1661.7,1206.1z"/>
			<path fill="#303531" d="M2015.7,1330.4c-6.9-9.3-13-19.2-18.3-29.5c5.7-2.9,11-7.2,15.5-13.1c2.3-3-1.9-7.2-4.2-4.1
				c-17.2,22.6-45.5,19-68,6.8c-10.4-5.6-19.9-13.1-27.5-22.1c-3.9-4.6-10.6-13.6-7.1-20c1.8-3.3-3.3-6.2-5.2-2.9
				c-1.9,3.3-2,7-1.2,10.5c-1,0-1.9,0.3-2.6,1.3c-5.5,7.4-16.9,7.2-25,5.7c-3.7-0.7-5.3,5-1.6,5.7c10.8,1.9,23.6,1.4,31-7.6
				c1.3,2.9,3.1,5.7,4.8,8.1c7.6,10.4,18.1,18.8,29.2,25.3c-0.4,0.3-0.7,0.8-0.9,1.3l-7.1,21.3c-1.2,3.6,4.5,5.2,5.7,1.6l7.1-21.3
				c0-0.1,0-0.2,0.1-0.2c16.2,8.3,35.3,12,51.6,6.2c5.4,10.5,11.6,20.7,18.6,30.2C2012.8,1336.4,2018,1333.4,2015.7,1330.4z"/>
			<path fill="#303531" d="M1730.1,1379.2c-11.5-13.1-27.4-21.9-43.8-27.2c-17.6-5.7-38.2-8.3-55.9-1.8c-17.7,6.5-27,23.5-24.6,41.9
				c2.9,22.4,17.6,40.8,26,61.1c0.9,2.3,3.7,2.4,5.1,1.2c0.6,0.5,1.2,1.1,1.9,1.5c-9,9.7-14.5,21.8-20.4,33.5
				c-6.4,12.6-14,26.7-28,31.8c-10.9,4-23.7,2.3-34-2.7c-6.8-3.4-15.4-11-5.5-16.2c3.4-1.8,0.4-6.9-3-5.1c-8.6,4.6-10,12.8-3.5,20
				c8.1,9.1,22.7,12.3,34.3,12.1c27-0.5,37.2-22.6,48.1-43.8c-4.1,13.6-6.2,28.3-3.8,42.3c2.4,13.3,11.3,25.3,24.4,29.3
				c15.9,4.8,31.2-6.2,41.3-17.4c2.5-2.8-1.6-7-4.2-4.2c-9.3,10.4-22.1,19.9-36.7,15.5c-12.7-3.8-18.8-18.2-19.7-30.3
				c-1.1-14.2,2.6-28.7,7.2-41.9c2.3-6.5,5-13.1,8.4-19.4c0,0,0-0.1,0.1-0.1c0-0.1,0.1-0.1,0.1-0.2c18.4,8.8,46.6,0.8,62.7-7.2
				c13.4-6.7,26.7-17,32.6-31.1C1745.5,1405.8,1740.3,1390.9,1730.1,1379.2z"/>
			<path fill="#EBEAE6" d="M1401.8,1502.3c-1.1-29.5-3.8-59.6-8.8-88.6c-4.5-26.7-12.2-53.4-27.8-75.9c-16.7-24.1-40.3-42-68.9-49.2
				c-13.9-3.5-28-5.3-42.2-7.2c-7-1-14-1.9-20.9-3.5c-8,2.7-16.1,2.3-23.8-0.4c-35.7,0.6-71.9,10.1-100.7,31.8
				c-33.7,25.4-51.8,65-51.1,107c0.4,23.6,4.8,47.3,11,70.1c6.7,24.7,15.7,48.8,27.5,71.6c22.2,42.9,55.3,84.8,101.6,102.9
				c22.5,8.8,47.8,12,71.9,12.3c24.2,0.4,50.1-2.1,72-13.4c24.1-12.4,37.9-35.8,47-60.6C1400,1568.2,1403.1,1535,1401.8,1502.3z"/>
			<path fill="#303531" d="M519.5,1173.8c5.3,20,12.9,39.7,23.2,57.7c12.1,21.2,33.2,46.6,57.5,44.7c-8.2,26.2-14.2,53.2-17.2,80.6
				c-3.2,29.5-2.3,58.5,1.1,87.9c4.4,37.4,7.9,74.8,12.4,112.2c4.4,36.1,10.8,71.6,17.6,107.3c5.3,27.7,9,55.7,14.7,83.4
				c5.2,24.8,11.1,51.4,25.2,72.9c2.1,3.2,7.2,0.2,5.1-3c-0.2-0.4-0.5-0.7-0.7-1.1c-14.2-22.4-19.9-50-24.9-75.6
				c-5.4-27.6-8.7-55.7-14.7-83.2c-16.2-73.6-21.8-149.3-30.1-224c-6-53.3,1.6-107.5,18.1-158.5c4.5-1.2,9-3.5,13.6-6.8
				c3-2.2,0.1-7.4-3-5.1c-2.8,2-5.5,3.6-8.2,4.7c0.7-2.1,1.5-4.3,2.2-6.4c6.7-18.7,14.6-37,23.5-54.8c0.7-0.5,1-1.3,1-2.1
				c12.2-24.1,26.5-47.2,42.6-68.9c2.6,2.2,6.3-1.7,3.9-4.5c-0.1-0.1-0.2-0.2-0.3-0.3c6.4-8.4,13.1-16.5,20-24.4
				c37.5-42.6,83-75.7,133.9-100.5c54.1-26.3,112.8-44.5,172.5-52.2c57.8-7.4,118.2-5.9,173.9,12.7c28,9.4,54.3,22.9,77.8,40.9
				c26,19.8,49,43.5,69.6,68.7c20.4,24.9,37.6,51.6,54.7,78.7c18,28.4,29.1,60.3,36,93.1c6.9,32.8,10.2,66.1,14.6,99.2
				c4.6,35.6,12.1,70.6,18.5,105.9c7,38.7,13.3,77.6,17.5,116.7c3.3,31,6.6,62.5,4.7,93.7c-1.4,23.7-3.7,47.4-4.4,71.1
				c-0.3,10.8-0.5,21.7,0.5,32.5c0.6,6.8,1.4,14.3,4.9,20.3c1.9,3.3,7.1,0.3,5.1-3c-3.7-6.3-4.1-14.8-4.5-21.9
				c-1.3-23.6,0.6-47.4,2.3-71c0.8-10.9,1.6-21.7,2.2-32.6c0.7-13.5,0-26.9-0.8-40.4c-4.7-77-18.8-152.9-33.5-228.5
				c-12.6-64.7-11.9-132.5-36.2-194.6c-11.5-29.5-28.9-56.6-46.9-82.6c-18.2-26.4-38.2-51.6-60.8-74.4
				c-14.9-15.1-30.9-29.4-48.2-41.7c0.2-0.1,0.4-0.2,0.6-0.3c4.3-2.6,8.4-5.8,11.8-9.5c25.9-28.7,22.5-84.8-13.2-104.6
				c-20.4-11.4-46.4-9.8-64.3,5.7c-18.1,15.7-27.1,39.9-28.6,63.3c-0.3,3.8,5.7,3.8,5.9,0c1.5-22.4,10.6-47.8,29.6-61.3
				c18.1-12.9,44.7-12.6,61.7,2.5c27.8,24.7,27.3,78.7-5.9,98.8c-1.2,0.7-1.5,1.8-1.4,2.8c-6.8-4.6-13.7-9-20.9-12.9
				c-24.4-13.4-50.9-23-78.1-28.9c-57.1-12.4-116.7-10.6-173.9,0.2c-57.7,10.8-114.2,30.4-165.8,58.5
				c-38.1,20.8-72.6,46.6-102.6,77.5c-3.3-4.5-6.8-8.8-10.6-12.8c-28.1-29.5-70.7-46.3-111.3-37c-18.6,4.3-36.1,13.9-48.8,28.3
				c-14.7,16.6-22.7,37.3-25.7,59.1C511.9,1141.9,515.4,1158.6,519.5,1173.8z M630.7,1201.6c-36.2,6.2-69-34.3-61.4-69.1
				c4.6-21,24.7-35.3,46.2-33.1c22.2,2.3,43.3,15.9,58.9,31.9C657.9,1153.5,643.3,1177,630.7,1201.6z M519.5,1131.2
				c2.7-42.3,31.7-79.9,74.2-87.5c43.4-7.8,86.8,13.8,112.4,48.5c0.2,0.2,0.3,0.4,0.5,0.5c-7.3,7.8-14.4,15.8-21.1,24.2
				c-2.5,3.2-5,6.4-7.5,9.6c-1.9-1.9-3.9-3.8-5.9-5.6c-18.6-16.1-45.7-32.5-71.5-26.7c-20.1,4.5-35.7,21.2-37.7,41.8
				c-3.7,36.4,27.3,74.8,64.7,71.7c-9.9,20-18.4,40.7-25.4,61.9c-23.6,4-43.8-22.2-55-42.4c-9-16.3-16-33.7-21-51.7
				C522.1,1161.5,518.5,1146.1,519.5,1131.2z"/>
			<path fill="#303531" d="M1113.5,929.8c0.6,4.5,2.9,20.7,10.9,14c2.5-2.1-0.2-5.4-2.9-4.8c0-0.1-0.2-0.4-0.5-1.4
				c-0.2-0.7-0.4-1.5-0.6-2.3c-0.4-1.8-0.8-3.7-1-5.5c-0.6-4.6-1-9.3-1.1-14c-0.3-9.7,0.5-19.3,2.2-28.8
				c3.4-18.8,9.8-37.4,20.9-53.2c20.5-29.4,54.9-45.3,90.6-41.8c54.6,5.5,106.8,51.2,109.4,107.7c1.2,25-6,48.7-15.5,71.6
				c-4.5,11-9.5,22.1-16.2,32c-3.8,5.6-10.7,16.2-18.9,13.5c-3.6-1.2-5.2,4.5-1.6,5.7c16.5,5.5,28.9-20.8,34.4-31.9
				c9.6-19.7,18.4-41.2,21.9-62.9c3.8-24,1.7-48.8-9.3-70.7c-11.5-23-30.6-41.1-52.5-54.1c-43.4-25.6-102-23.6-137.3,14.9
				c-18.3,20-28.8,46.1-32.6,72.8C1112.2,903.8,1111.8,916.8,1113.5,929.8z"/>
			<path fill="#303531" d="M1148.6,1172c11.3,26.1,39.6,29.4,64.4,23c11.4-2.9,22.5-7.9,32-14.9c4.9-3.5,13.6-10.6,11.7-17.7
				c-1-3.7,4.7-5.2,5.7-1.6c2.3,8.7-4.8,16.6-11,21.7c-10.2,8.6-23,14.3-35.8,17.8c-27.3,7.7-59.8,3.3-72.2-25.4
				C1142,1171.5,1147.1,1168.5,1148.6,1172z"/>
			<path fill="#303531" d="M795.8,1283.6c17.2,22.6,45.5,19,68,6.8c10.4-5.6,19.9-13.1,27.5-22.1c3.9-4.6,10.6-13.6,7.1-20
				c-1.8-3.3,3.3-6.2,5.1-2.9c4.4,7.9-0.7,17.2-5.4,23.7c-7.8,10.8-18.9,19.4-30.4,26c-24.6,14-57.2,17.7-76.2-7.3
				C789.3,1284.7,793.5,1280.6,795.8,1283.6z"/>
			<path fill="#303531" d="M1154.4,1379.2c11.5-13.1,27.4-21.9,43.8-27.2c17.6-5.7,38.2-8.3,55.9-1.8c17.7,6.5,27,23.5,24.6,41.9
				c-2.9,22.4-17.6,40.8-26,61.1c-0.9,2.3-3.7,2.4-5.1,1.2c-0.6,0.5-1.2,1.1-1.9,1.5c9,9.7,14.5,21.8,20.4,33.5
				c6.4,12.6,14,26.7,28,31.8c10.9,4,23.7,2.3,34-2.7c6.8-3.4,15.4-11,5.5-16.2c-3.4-1.8-0.4-6.9,3-5.1c8.6,4.6,10,12.8,3.5,20
				c-8.1,9.1-22.7,12.3-34.3,12.1c-27-0.5-37.2-22.6-48.1-43.8c4.1,13.6,6.2,28.3,3.8,42.3c-2.4,13.3-11.3,25.3-24.4,29.3
				c-15.9,4.8-31.2-6.2-41.3-17.4c-2.5-2.8,1.6-7,4.2-4.2c9.3,10.4,22.1,19.9,36.7,15.5c12.7-3.8,18.8-18.2,19.7-30.3
				c1.1-14.2-2.6-28.7-7.2-41.9c-2.3-6.5-5-13.1-8.4-19.4c0,0,0-0.1-0.1-0.1c0-0.1-0.1-0.1-0.1-0.2c-18.4,8.8-46.6,0.8-62.7-7.2
				c-13.4-6.7-26.7-17-32.6-31.1C1138.9,1405.8,1144.1,1390.9,1154.4,1379.2z"/>
		</g>
		<g>
			<g>
				<path fill="#303531" d="M2155.1,1816.1c-17.8,33.6-47.9,55.3-80.9,72.5c-6.1,3.2-12.3,6.3-18.5,9.3c-4.7,0.8-9.3,2.1-13.6,3.4
					c-3.5,1.1-7.1,2.3-10.5,3.6c13-13.8,26.4-29.4,24.4-48.8c-0.6-5.5-1.2-8.8-6.7-10.1c-4.3-1-8.7-1.6-13.1-1.6
					c-6.5,0-12.9,1.9-17.7,6.4c-8.7,8.2-8.6,22.6-8.1,33.5c0.3,6,1,12,1.3,18c0.1,2.3,0.8,9.2-0.8,10.3c-2.6,1.9-0.8,5.9,1.6,5.6
					c-15,6.9-30.1,13.6-45,20.4c-13.4,6.1-26.9,12.1-40.5,18c-5.6,0.7-11,2.2-16.2,4.3c8.1-12.3,13.3-26.6,7.4-41
					c-2.7-6.6-7.6-12.3-14.7-14.2c-6.7-1.8-17.6,2-21.4,7.9c-6.9,10.4-4.4,26.7-2.6,38.2c0.5,3.2,2.1,15.3,6.4,19.7
					c-0.5,0.5-0.7,1.1-0.7,2c0,0.2,0,0.4,0.1,0.6c-38.5,15.8-77.3,30.5-116.7,43.9c-0.1,0-0.2,0-0.3,0.1
					c8.1-8.4,14.6-19.1,19.5-28.8c5.4-10.6,13.1-29.6,0.6-38.3c-6.7-4.7-17.1-2.9-24.3-0.9c-9,2.5-15.9,8.6-19.4,17.3
					c-6.9,17.2,1.7,36.3,1.3,53.9c0,1.5-0.2,3-0.6,4.4c-11.9,3.9-23.9,7.6-36,11.2c-29.9,9-60.1,17-90.5,24
					c-2.2,0.1-4.4,0.2-6.3,0.4c8.6-6.8,16.4-15.1,23.3-23c8.1-9.3,21.7-25.9,14-38.9c-3.9-6.6-12.7-8.7-19.7-9.5
					c-7.3-0.8-13.1,4.4-16.8,10c-10.2,15-11.4,35.4-15.7,52.5c-0.7,2.8-1.4,5.8-2.9,8.2c-1.5,2.4,1,4.7,3.2,4.3
					c0,0.2-0.1,0.4-0.1,0.6c-44.1,9.4-88.6,16.5-133.5,21c-5.4-1.8-11-2.9-16.7-3.5c11.7-5.4,22-13.6,29.3-24.3
					c10.7-15.6,9.4-34.4-1.3-49.5c-0.7-1.1-2-1.8-3.3-1.4c-31.1,10.3-47.9,46.7-50,77.3c-0.3,3.8,5.6,3.8,5.9,0
					c1.9-27.1,16.6-60.6,43.7-70.9c8.8,13.9,8.6,29-0.9,42.8c-9,13-24.3,21.7-39.4,25.2c-3.3,0.8-2.5,5.8,0.8,5.8
					c3.2,0,6.4,0.1,9.6,0.4c-0.5,0-0.9,0.1-1.4,0.1c-6.9,0.5-13.9,1-20.8,1.4c-0.4-2.2-0.5-4.4-0.4-6.6c0.2-3.8-5.7-3.8-5.9,0
					c-0.1,2.3,0,4.6,0.3,6.9c-36.6,1.9-73.2,1.7-109.7-0.3c-17.8-1-35.6-2.7-53.2-4.9c13.5-1.6,27.1-4.1,39.7-9.1
					c14.5-5.7,29.2-18,24.7-35.5c-4.6-17.8-28.2-16.9-40.8-10c-8.6,4.7-14.4,14-19.4,22.1c-5.6,9.1-10.3,18.8-16.6,27.5
					c-0.1,0.2-0.3,0.4-0.3,0.6c-1.1,0.5-1.7,1.4-1.8,2.5c-23.3-3.1-46.4-6.7-69.7-10.3c-22.3-3.4-44.6-7.3-66.6-12.8
					c-8.3-2.1-16.3-4.5-24.3-7.2c15.8-4.1,32.4-8.3,45.2-18.3c7-5.5,10.1-11.8,9.4-20.7c-0.4-5.9-2.6-11.8-8.5-13.9
					c-5.3-1.9-11.6,1.1-16.1,3.5c-7.1,3.8-13.4,9.1-19.4,14.5c-9,8-18.8,17.1-25.8,27.3c-0.6,0.4-1.1,0.9-1.3,1.6
					c-7.8-3-15.6-6.2-23.4-9.4c-33.3-13.9-66.4-28-100.1-40.9c10-1.5,20.1-5.4,28.2-8.9c10.4-4.6,29.4-14.7,25.3-29.1
					c-1.9-6.8-9.8-12-16.1-13.9c-8-2.5-16.6,1.7-23.1,5.9c-8.5,5.5-15.8,12.8-22.9,19.9c-4.5,4.6-9.5,11.7-15.6,14.5
					c-1,0.5-1.5,1.3-1.5,2.1c-1.4-0.5-2.8-1-4.2-1.5c-21.2-7.5-41.7-15.2-61.7-25.5c-13.5-7-26.6-14.8-39.3-23.2
					c5.1,0.9,10.2,1.9,15.3,2.5c12.1,1.5,24.8,1.6,34.7-6.5c4.1-3.3,6.1-10.2,6.6-15.2c0.4-4.7-1.7-9-4.5-12.6
					c-6.3-8-19.4-10.3-29-9c-10.4,1.4-20.2,7.3-28.7,13.1c-5.2,3.6-11.7,7.8-15.9,13.1c-25.9-18.4-50.6-38.6-75.6-58.3
					c-3.7-2.9-7.4-5.9-11.1-8.9c11.1,2.4,23.6,1.4,33-0.5c8.6-1.8,17.8-5.7,23.3-12.9c4.9-6.5,6.7-16.2,5.6-24.1
					c-2.1-15.2-20.4-13.7-31.3-10.8c-16,4.2-31.9,12.8-44.5,23.5c-2.4,2.1-4.6,4.3-6.5,6.9c-0.1,0.1-0.1,0.2-0.2,0.3
					c-0.5-0.5-1.1-0.9-1.6-1.4c-4.4-4-8.6-8.1-12.6-12.4c-1.6-1.7-3-3.4-4.3-5.3c-1.3-1.9-0.5-2.3-1.6-1.4c2.9-2.5-1.3-6.6-4.2-4.2
					c-6,5.1,7.8,18.8,19.2,28.7c-8.4,7.3-12.6,21.6-15.1,30.8c-4.3,15.6-7.1,35.3-0.6,50.7c5.7,13.4,21.8,16.7,32.4,6.4
					c12.6-12.2,11.2-36.1,10.5-52.1c-0.2-4.8-0.6-9.5-1.1-14.3c17.6,14.3,35.7,28.1,53.5,42.1c9.8,7.7,19.9,15.2,30.1,22.5
					c0,0.3,0.1,0.5,0.3,0.8c-1.6-0.2-3.2-0.2-4.8-0.1c-7.7,0.7-10.1,8.5-11.7,14.8c-2.9,11.1-4.7,23.2-0.5,34.3
					c4,10.7,14,16.4,25,17.6c7.5,0.8,15.2-0.2,19.9-6.7c4.1-5.7,3.2-13.9,2.1-20.3c-1.5-8.9-4.8-17.3-8.4-25.5
					c17.5,11.4,35.7,21.7,54.7,30.6c17.3,8.1,35.3,14,53.2,20.4c-10.1,13.5-10.2,35.8-8.2,51.2c2.1,16.4,10.2,34.9,29.4,34.7
					c15.3-0.2,16.3-19.3,15.5-30.5c-1.1-15.5-5.2-31.4-11-45.9c15.7,6,31.3,12.3,46.9,18.7c24.8,10.2,49.3,21.2,74.4,30.6
					c0.5,1.2,1.7,2,3,2c-0.1,0.5-0.2,1.1-0.3,1.7c-1.2,6.9-1.3,14-1.3,21c0.2,16,4.1,74.9,33.6,58.2c29.4-16.6,4-53.4-15.9-76.1
					c11.5,3.8,23.2,7.2,35.2,9.9c22,5,44.4,8.3,66.8,11.7c19.7,3,39.3,6.3,59,8.9c2.9,14.7,6.6,29.2,12.7,43
					c6,13.7,17.2,29.8,34.3,25.4c15.1-3.9,27.7-19.8,20.3-34.9c-6.8-14-23.7-23.1-37.1-30c49,4.8,98.4,5.5,147.6,3
					c3.6,12.7,12.7,24.7,20.9,33.8c10.9,12.1,28.3,25.9,45.8,21.3c8.1-2.1,15.2-7.5,17.4-15.8c2.3-8.9-2-18.7-6.6-26.1
					c-4.5-7.3-10.4-13.5-17.6-17.9c13.2-1.4,26.3-3,39.4-4.9c28.8-4.1,57.3-9.2,85.6-15.3c5,14.2,17.6,27.2,29.2,35
					c7.3,4.9,16,7.9,24.8,6.2c9.4-1.7,15.9-10.4,19.4-18.6c9.4-22.1-10.7-30-32.2-32.2c36.9-9.2,73.3-19.9,109.4-31.8
					c17.4,24.3,61.6,57.9,78.4,18.4c2.9-6.8,4.4-14.4,1.3-21.3c-2.6-5.8-8.9-8.9-14.6-10.5c-6.2-1.8-12.9-2.4-19.6-2.2
					c30.2-10.9,60.2-22.5,90-34.8c3.8,15.7,17.3,26.1,33.8,27.6c18.1,1.7,37-10.6,43.5-27.4c5.4-13.8-8.9-21.5-20.3-23.1
					c-0.8-0.1-1.7-0.2-2.5-0.3c24.9-10.9,49.7-22.1,74.3-33.6c4.4,30.9,54.3,38.2,69.6,10.7c8.1-14.6,0-32.4-16.2-35.8
					c37-18.4,71.6-40.7,91.9-78.8C2162,1815.7,2156.9,1812.7,2155.1,1816.1z M692.3,1897.3c-0.5,8.9-1.8,18.6-6.9,26.1
					c-4,5.9-12.5,8.6-18.8,5c-5.9-3.4-7.7-11.9-8.4-18.1c-1.1-9.1-0.2-18.4,1.5-27.4c1.6-8.9,4.3-17.7,8.2-25.8
					c1.8-3.7,4.3-8.5,7.9-11.4c3.9,3.2,7,5.7,8.1,6.6c2.3,1.9,4.5,3.8,6.8,5.7C691.4,1871.1,693,1884.1,692.3,1897.3z M696.1,1847.7
					c0.8,1.2,2.3,1.9,3.8,0.9c13.8-8.6,28.2-15.8,43.6-21c3.6-1.2,2-6.9-1.6-5.7c-15.9,5.4-30.8,12.8-45,21.6
					c-0.6,0.3-0.9,0.8-1.1,1.3c-1.2-2.5-5.7-2.1-5.6,1.3c0,0.4,0,0.7,0,1.1c-3.2-1.5-6.1-3.4-8.4-5.9c0-0.4,0-0.7,0-1.1
					c7.9-10.3,21.7-17.2,33.2-22.4c8.7-3.9,27.9-12.2,36.1-3.2c4.5,5,1.3,14.7-0.4,20.1c-2.6,8-12.7,12-20,14
					c-9.3,2.5-23,3.7-34.4,0.7C696.1,1848.8,696.1,1848.2,696.1,1847.7z M805.2,1969.9c1.1,5.9,1.8,14.3-4,18
					c-8.8,5.7-24-0.2-29.5-7.7c-7.5-10.3-4.3-25.2-1.4-36.5c0.7-2.7,1.7-7.6,4.7-8.8c2.9-1.2,6.9,0,9.8,0.3c2.3,0.3,4.6,0.4,6.8,0.6
					c0.5,0.3,1,0.7,1.4,1C798.1,1947.5,803,1958.2,805.2,1969.9z M802.1,1930.9c-1.8-0.3-3.6-0.5-5.3-0.6c-0.6-1.4-1.2-2.7-1.8-4.1
					c-1.2-2.8-4.7-1.4-5.3,1c-0.1-0.1-0.2-0.2-0.4-0.2c-0.4-0.3-0.8-0.6-1.2-0.8c5-6.4,13.7-11.4,20.2-15.3
					c10.6-6.5,21.4-10.5,33.8-7.4c6,1.5,11.6,5.4,13.2,11.6c2.1,8.3-5.3,15.8-12.3,18.2C830.1,1937.5,815,1933,802.1,1930.9z
					 M926.3,1980.1c5.9-6,11.8-12.1,18.1-17.6c6.1-5.3,13-10.4,21-12.1c6.7-1.4,14.8,3.5,17.9,9.4c5.4,10.6-17,20.6-23.4,23.5
					c-8.2,3.6-19.1,7.6-29.2,8.2c-0.3-0.5-0.6-1.1-1-1.6c-1.7-2.7-5.6-1-5.6,1.4c-1.7-0.2-3.4-0.5-5.1-1c-0.5-0.1-0.9-0.2-1.3-0.1
					c-0.6-0.2-1.2-0.4-1.7-0.6C919.9,1987.3,923.2,1983.2,926.3,1980.1z M938.5,2031.8c1.7,7.7,2.9,15.6,3,23.5
					c0,5.6-0.4,12.6-4.8,16.7c-4.3,4.1-12.5,1.2-16.7-1.4c-7.3-4.5-10-14.7-11.5-22.5c-2-10-1.8-20.6-0.3-30.6
					c1.1-7.2,3-15.8,7.9-21.5c0.5,0.2,1,0.4,1.5,0.5c3.7,1.3,7.4,2.7,11,4.1C933.5,2010.4,936.2,2021.6,938.5,2031.8z M1093,2020.4
					c5.9-5.1,27.7-24.2,31.2-8c2.3,10.8-4.3,17-13,22c-10.2,5.7-21.8,9-33,12.1c-3.6,1-7.3,2-10.9,3c-0.4-0.4-0.9-0.9-1.3-1.3
					C1073.4,2037.7,1083.7,2028.5,1093,2020.4z M1094.6,2096.6c3.7,7.6,7.3,17.8,3.2,25.9c-2.6,5.2-10.6,11.3-16.8,9.7
					c-5.3-1.4-8.2-8.2-9.9-12.7c-2.9-7.7-4.3-16-5.3-24.1c-1.4-12.2-2.7-26.5,0.1-38.7C1077.2,2068.6,1087.4,2081.9,1094.6,2096.6z
					 M1272.8,2039.5c9.6-9.2,35.5-12.6,37.4,5.7c1.7,16.3-16.1,24.2-28.7,28.1c-11.5,3.6-23.6,5.5-35.6,6.7
					C1254.9,2066.6,1260.9,2050.8,1272.8,2039.5z M1277.8,2106c11.1,7,30.8,20.8,20.4,35.8c-4.8,6.9-14.7,13.1-23.3,11
					c-7.9-1.9-13.1-10.1-16.7-16.8c-7.6-13.8-11.5-29.8-14.6-45.3c2.1,0.3,4.3,0.5,6.4,0.8c1.9,0.8,3.8,1.6,5.6,2.5
					C1263.2,2097.6,1270.6,2101.5,1277.8,2106z M1486,2110.2c4.6,6.5,8.3,14.3,7.7,22.4c-0.5,8.1-9.4,12.9-16.7,13.8
					c-15.2,1.7-29.6-12.2-38.7-22.6c-6.6-7.5-13.8-17.4-17.1-27.8c14.1-0.8,28.3-1.9,42.4-3.3
					C1473.1,2095.8,1480.3,2102.1,1486,2110.2z M1601.9,2059.8c7.7-20.9,9-80.3,40.4-59.7c12.3,8.1-5.7,28.7-11.3,35.1
					c-7.9,9.1-17.3,18.8-27.6,25.7C1603,2060.4,1602.5,2060,1601.9,2059.8z M1669.8,2085.2c-0.3,7.9-6.5,16.6-13.2,20.3
					c-7.5,4.2-16.6,0.5-23.3-3.6c-7.7-4.7-14.3-11.6-19.6-18.8c-2.9-3.9-5.8-8.3-7.7-13c1.8-0.4,3.7-0.8,5.5-1.2
					c-1.3,1.3-1.3,4.3,1.1,5.2c13.9,5.6,23.9,17.4,39.8,17.8c3.8,0.1,3.8-5.8,0-5.9c-14.7-0.4-25.1-12.4-38.2-17.6
					c-0.1,0-0.2-0.1-0.3-0.1c2.3-0.5,4.5-1,6.8-1.5c6.5-0.2,13,0.1,19.4,0.7C1650.4,2068.4,1670.3,2071.2,1669.8,2085.2z
					 M1753.2,2023.1c-0.2-0.4-0.5-0.8-0.7-1.2c-0.2-0.3-0.4-0.5-0.6-0.7c0-1.3,0-2.6-0.1-3.9c1.1-0.1,2.2-0.7,2.7-1.9
					c5.1-12.2,8.5-25.3,15.7-36.5c2.1-3.2-3.1-6.2-5.1-3c-6.5,10.1-10,21.7-14.2,32.9c0-0.2-0.1-0.5-0.1-0.7
					c-1.2-8.5-2.6-17-2.6-25.7c0-8.3,2.1-17,9.1-22.2c6.6-5,17.5-7.3,25.5-5c13.6,3.8,2.7,26.2-1.1,33.4
					c-6.4,12.4-15.7,26.8-27.9,34.1C1753.5,2022.7,1753.3,2022.9,1753.2,2023.1z M1826.3,2036c-0.1,4.8-1.8,10-4.6,14.5
					c-0.3-0.7-0.9-1.3-1.9-1.6c-15.7-3.7-29.4-12-43.6-19.2c-3.4-1.7-6.4,3.4-3,5.1c14.7,7.4,28.9,16,45,19.8c0.1,0,0.2,0,0.3,0
					c-1.7,1.8-3.6,3.4-5.6,4.5c-7.7,4.3-17.3,0.7-24.5-3.1c-11.7-6.3-23.7-16.7-31.9-28c3.8-1.3,7.6-2.5,11.3-3.8
					c9-2.2,18.4-3.4,27.5-3.7C1806.4,2020.2,1826.5,2020.8,1826.3,2036z M1889.4,1966.2c-0.8-1.5-1.2-3.1-1.7-4.7
					c-1.3-4.4-2.1-9-2.8-13.5c-1.3-9-2.1-19.3,0.8-28.1c1.7-5.3,9.4-8.4,14.6-8.4c7.2-0.1,11.4,7.8,13.5,13.5
					c5.7,15.9-6.9,33.1-16.6,44.6c-1.4,0.6-2.9,1.2-4.3,1.8c0.6-1.7-0.8-3.8-2.7-3.9C1890,1967.2,1889.7,1966.9,1889.4,1966.2z
					 M1958.4,1976.5c-1.6,7.1-8.4,13.6-13.9,17.8c-6.3,4.8-14.1,7.1-22,7.1c-14.9,0-28-9.8-30.9-24.1c2.1-0.9,4.2-1.7,6.3-2.6
					c0.9,0.3,2,0.2,3-0.7c0.4-0.4,0.9-0.8,1.4-1.1c7.8-3.3,15.6-6.6,23.4-9.9c3.8-0.6,7.7-0.9,11.4-0.8
					C1945.2,1962.3,1960.9,1965.1,1958.4,1976.5z M2017.6,1903.7c-0.3-8.3-1.4-16.5-1.5-24.7c-0.1-7.7,0.3-16.8,5.5-23
					c6.5-7.8,18.5-6.1,27.4-3.9c6.5,23.9-17.2,43.4-31.6,59.2C2017.8,1908.8,2017.7,1906.1,2017.6,1903.7z M2079.5,1930.7
					c-11.8,24.4-56.4,16.1-58.8-10.4c1.6-0.8,3.3-1.5,4.9-2.3c10-4.7,20.1-9.2,30.1-14c1.2-0.2,2.4-0.4,3.6-0.5
					C2075.3,1901.7,2086.8,1915.7,2079.5,1930.7z"/>
				<path fill="#303531" d="M683.5,1857.7c-0.5-3.8-6.2-2.2-5.7,1.6c1.1,8-0.4,16.7-1.3,24.7c-1,9.2-2.3,18.5-2.3,27.7
					c0,3.8,5.9,3.8,5.9,0C680.3,1893.9,686.1,1875.4,683.5,1857.7z"/>
				<path fill="#303531" d="M782.5,1941c-1.7,9.1-1.9,18.2-1.9,27.4c0,3.8,5.9,3.8,5.9,0c0-8.7,0.1-17.3,1.7-25.8
					C788.8,1938.9,783.1,1937.3,782.5,1941z"/>
				<path fill="#303531" d="M824.6,1916.2c-3.1,2-6.5,3.2-10,4.2c-2.6,0.8-6.3,1.9-9,0.8c-3.6-1.4-5.1,4.3-1.6,5.7
					c3.4,1.3,7.6,0.3,11-0.5c4.3-1,8.8-2.7,12.6-5.1C830.8,1919.3,827.8,1914.2,824.6,1916.2z"/>
				<path fill="#303531" d="M921.1,2007.7c-6,12.7-7.4,27.7-3.8,41.3c1,3.7,6.7,2.1,5.7-1.6c-3.2-12-2.1-25.5,3.2-36.7
					C927.8,2007.3,922.7,2004.3,921.1,2007.7z"/>
				<path fill="#303531" d="M954,1965.9c-6.2,4.6-12.6,8.9-19.5,12.4c-3.4,1.7-0.4,6.8,3,5.1c6.9-3.5,13.3-7.8,19.5-12.4
					C960,1968.7,957.1,1963.6,954,1965.9z"/>
				<path fill="#303531" d="M1085.7,2114.1c-7.7-12.7-11.9-26.4-13.8-41.1c-0.5-3.7-6.4-3.8-5.9,0c2.1,15.7,6.3,30.4,14.6,44
					C1082.6,2120.3,1087.7,2117.4,1085.7,2114.1z"/>
				<path fill="#303531" d="M1109.5,2014.2c-8.2,6.6-15.6,13.9-23.1,21.3c-2.7,2.7,1.5,6.9,4.2,4.2c7.4-7.4,14.9-14.7,23.1-21.3
					C1116.6,2016,1112.4,2011.8,1109.5,2014.2z"/>
				<path fill="#303531" d="M1282.6,2135.4c-7.7-11.3-17.4-21.1-23.1-33.7c-1.6-3.5-6.7-0.5-5.1,3c5.7,12.6,15.4,22.4,23.1,33.7
					C1279.6,2141.5,1284.7,2138.5,1282.6,2135.4z"/>
				<path fill="#303531" d="M1290.9,2042.1c-9.9,6.6-19.5,13.9-25.9,24.1c-2,3.2,3.1,6.2,5.1,3c5.8-9.3,14.8-15.9,23.8-22
					C1297.1,2045.1,1294.1,2040,1290.9,2042.1z"/>
				<path fill="#303531" d="M1456.3,2029.7c-3.4,13-10.3,23.9-18.7,34.2c-2.4,2.9,1.8,7.1,4.2,4.2c9.1-11.1,16.6-22.8,20.3-36.8
					C1462.9,2027.6,1457.2,2026,1456.3,2029.7z"/>
				<path fill="#303531" d="M1466.5,2120.6c-7.6-7.6-14.4-16-23.6-21.7c-3.2-2-6.2,3.1-3,5.1c8.7,5.5,15.3,13.6,22.5,20.8
					C1465,2127.5,1469.2,2123.3,1466.5,2120.6z"/>
				<path fill="#303531" d="M1627.2,2019.5c-8.3,10.2-14.6,21.6-21.7,32.5c-2.1,3.2,3,6.2,5.1,3c6.9-10.5,12.9-21.6,20.8-31.3
					C1633.8,2020.8,1629.6,2016.6,1627.2,2019.5z"/>
				<path fill="#303531" d="M1894.1,1929.4v28.4c0,3.8,5.9,3.8,5.9,0v-28.4C1900,1925.6,1894.1,1925.6,1894.1,1929.4z"/>
				<path fill="#303531" d="M1944,1979.7c-12.1-1.6-24.1-1.9-36.2-1.9c-3.8,0-3.8,5.9,0,5.9c11.6,0,23.2,0.1,34.7,1.7
					C1946.1,1986,1947.7,1980.3,1944,1979.7z"/>
				<path fill="#303531" d="M2034.7,1866.6c-0.7-3.7-6.4-2.2-5.7,1.6c1.4,8-0.7,14.4-6.3,20.2c-2.6,2.7,1.5,6.9,4.2,4.2
					C2034,1885.1,2036.5,1876.7,2034.7,1866.6z"/>
				<path fill="#303531" d="M2056.7,1926.4c-6.9,0-13.7-0.1-20.5-1.7c-3.7-0.9-5.3,4.8-1.6,5.7c7.3,1.7,14.6,1.9,22.1,1.9
					C2060.5,1932.4,2060.5,1926.5,2056.7,1926.4z"/>
			</g>
			<g>
				<path fill="#303531" d="M2160.2,474.5c-20.2-38.1-54.9-60.3-91.9-78.8c16.3-3.3,24.3-21.2,16.2-35.8
					c-15.3-27.5-65.1-20.2-69.6,10.7c-24.6-11.4-49.4-22.7-74.3-33.6c0.9-0.1,1.7-0.2,2.5-0.3c11.4-1.6,25.8-9.2,20.3-23.1
					c-6.6-16.8-25.5-29.1-43.5-27.4c-16.6,1.6-30,11.9-33.8,27.6c-29.8-12.2-59.7-23.9-90-34.8c6.7,0.2,13.4-0.4,19.6-2.2
					c5.7-1.7,12-4.8,14.6-10.5c3.1-7,1.6-14.5-1.3-21.3c-16.8-39.4-61-5.9-78.4,18.4c-36.1-11.9-72.5-22.6-109.4-31.8
					c21.5-2.3,41.6-10.2,32.2-32.2c-3.5-8.2-10.1-16.9-19.4-18.6c-8.8-1.6-17.5,1.4-24.8,6.2c-11.7,7.8-24.2,20.8-29.2,35
					c-28.3-6.1-56.8-11.2-85.6-15.3c-13.1-1.8-26.2-3.5-39.4-4.9c7.2-4.4,13.1-10.7,17.6-17.9c4.6-7.5,8.9-17.2,6.6-26.1
					c-2.1-8.3-9.2-13.7-17.4-15.8c-17.5-4.6-34.9,9.3-45.8,21.3c-8.2,9.1-17.3,21.1-20.9,33.8c-49.2-2.6-98.5-1.8-147.6,3
					c13.4-6.9,30.3-16,37.1-30c7.3-15.1-5.2-31-20.3-34.9c-17.1-4.4-28.3,11.7-34.3,25.4c-6,13.7-9.8,28.3-12.7,43
					c-19.7,2.6-39.3,6-59,8.9c-22.3,3.4-44.7,6.7-66.8,11.7c-12,2.7-23.6,6.1-35.2,9.9c20-22.7,45.3-59.5,15.9-76.1
					c-29.6-16.7-33.5,42.2-33.6,58.2c-0.1,7,0.1,14.1,1.3,21c0.1,0.6,0.2,1.2,0.3,1.7c-1.3,0-2.6,0.8-3,2
					c-25.1,9.4-49.6,20.3-74.4,30.6c-15.6,6.4-31.2,12.7-46.9,18.7c5.8-14.5,10-30.4,11-45.9c0.8-11.2-0.2-30.3-15.5-30.5
					c-19.3-0.3-27.3,18.3-29.4,34.7c-2,15.5-1.9,37.7,8.2,51.2c-17.9,6.3-35.9,12.3-53.2,20.4c-19,8.9-37.1,19.3-54.7,30.6
					c3.6-8.2,6.9-16.6,8.4-25.5c1.1-6.4,2-14.7-2.1-20.3c-4.7-6.5-12.4-7.5-19.9-6.7c-11,1.2-21,6.9-25,17.6
					c-4.2,11-2.4,23.1,0.5,34.3c1.7,6.4,4.1,14.1,11.7,14.8c1.6,0.1,3.2,0.1,4.8-0.1c-0.1,0.2-0.2,0.5-0.3,0.8
					c-10.2,7.3-20.2,14.8-30.1,22.5c-17.8,14-35.9,27.7-53.5,42.1c0.4-4.8,0.9-9.5,1.1-14.3c0.7-15.9,2.2-39.8-10.5-52.1
					c-10.6-10.3-26.7-7-32.4,6.4c-6.5,15.4-3.6,35.1,0.6,50.7c2.5,9.2,6.7,23.5,15.1,30.8c-11.4,9.9-25.2,23.6-19.2,28.7
					c2.9,2.5,7.1-1.7,4.2-4.2c1,0.9,0.3,0.5,1.6-1.4c1.3-1.9,2.8-3.6,4.3-5.3c4-4.3,8.3-8.4,12.6-12.4c0.5-0.5,1.1-0.9,1.6-1.4
					c0.1,0.1,0.1,0.2,0.2,0.3c1.9,2.5,4.1,4.8,6.5,6.9c12.6,10.7,28.5,19.3,44.5,23.5c10.8,2.8,29.2,4.3,31.3-10.8
					c1.1-8-0.7-17.7-5.6-24.1c-5.5-7.2-14.7-11.1-23.3-12.9c-9.3-1.9-21.9-2.9-33-0.5c3.7-3,7.4-6,11.1-8.9
					c25-19.7,49.6-39.9,75.6-58.3c4.2,5.3,10.6,9.6,15.9,13.1c8.5,5.8,18.3,11.7,28.7,13.1c9.5,1.3,22.6-1,29-9
					c2.8-3.5,4.9-7.9,4.5-12.6c-0.5-5-2.5-11.9-6.6-15.2c-9.9-8.1-22.6-8-34.7-6.5c-5.1,0.6-10.2,1.6-15.3,2.5
					c12.7-8.3,25.8-16.2,39.3-23.2c20-10.4,40.6-18.1,61.7-25.5c1.4-0.5,2.8-1,4.2-1.5c0,0.8,0.5,1.6,1.5,2.1
					c6,2.7,11,9.9,15.6,14.5c7.1,7.2,14.4,14.5,22.9,19.9c6.5,4.2,15.2,8.4,23.1,5.9c6.3-2,14.2-7.2,16.1-13.9
					c4.1-14.3-14.9-24.5-25.3-29.1c-8.1-3.6-18.3-7.5-28.2-8.9c33.7-12.9,66.8-27,100.1-40.9c7.8-3.3,15.6-6.4,23.4-9.4
					c0.3,0.6,0.7,1.2,1.3,1.6c7,10.2,16.9,19.3,25.8,27.3c6,5.3,12.3,10.7,19.4,14.5c4.6,2.4,10.8,5.4,16.1,3.5
					c5.9-2.1,8.1-8,8.5-13.9c0.7-8.9-2.4-15.2-9.4-20.7c-12.8-10-29.4-14.1-45.2-18.3c8-2.7,16.1-5.2,24.3-7.2
					c21.9-5.5,44.2-9.3,66.6-12.8c23.2-3.6,46.4-7.2,69.7-10.3c0.1,1.2,0.7,2.1,1.8,2.5c0.1,0.2,0.2,0.4,0.3,0.6
					c6.3,8.6,11,18.4,16.6,27.5c5,8,10.9,17.4,19.4,22.1c12.6,6.9,36.2,7.8,40.8-10c4.5-17.5-10.1-29.8-24.7-35.5
					c-12.7-5-26.2-7.5-39.7-9.1c17.7-2.1,35.4-3.8,53.2-4.9c36.5-2.1,73.2-2.2,109.7-0.3c-0.3,2.3-0.5,4.6-0.3,6.9
					c0.2,3.8,6.1,3.8,5.9,0c-0.1-2.2,0.1-4.4,0.4-6.6c7,0.4,13.9,0.9,20.8,1.4c0.5,0,0.9,0.1,1.4,0.1c-3.2,0.2-6.4,0.3-9.6,0.4
					c-3.3,0-4.1,5-0.8,5.8c15.1,3.6,30.5,12.2,39.4,25.2c9.5,13.9,9.8,28.9,0.9,42.8c-27.1-10.3-41.8-43.8-43.7-70.9
					c-0.3-3.8-6.2-3.8-5.9,0c2.2,30.6,19,67,50,77.3c1.3,0.4,2.6-0.3,3.3-1.4c10.7-15.1,12.1-34,1.3-49.5
					c-7.3-10.6-17.6-18.9-29.3-24.3c5.7-0.6,11.3-1.7,16.7-3.5c44.9,4.4,89.4,11.6,133.5,21c0,0.2,0,0.4,0.1,0.6
					c-2.2-0.4-4.7,1.9-3.2,4.3c1.5,2.5,2.2,5.4,2.9,8.2c4.2,17.2,5.5,37.5,15.7,52.5c3.8,5.6,9.6,10.8,16.8,10
					c7-0.8,15.8-2.9,19.7-9.5c7.7-13-6-29.6-14-38.9c-6.9-7.9-14.7-16.2-23.3-23c1.9,0.1,4.1,0.3,6.3,0.4c30.4,7,60.6,15,90.5,24
					c12,3.6,24,7.4,36,11.2c0.4,1.5,0.6,2.9,0.6,4.4c0.3,17.6-8.2,36.7-1.3,53.9c3.5,8.7,10.3,14.7,19.4,17.3
					c7.2,2,17.6,3.8,24.3-0.9c12.5-8.7,4.8-27.6-0.6-38.3c-4.9-9.7-11.4-20.4-19.5-28.8c0.1,0,0.2,0,0.3,0.1
					c39.4,13.4,78.2,28.1,116.7,43.9c0,0.2,0,0.4-0.1,0.6c-0.1,0.9,0.2,1.5,0.7,2c-4.3,4.4-5.9,16.6-6.4,19.7
					c-1.8,11.5-4.3,27.8,2.6,38.2c3.9,5.8,14.7,9.7,21.4,7.9c7.1-1.9,11.9-7.6,14.7-14.2c5.9-14.4,0.7-28.7-7.4-41
					c5.1,2.2,10.6,3.6,16.2,4.3c13.6,5.9,27.1,11.9,40.5,18c15,6.8,30,13.6,45,20.4c-2.5-0.3-4.2,3.7-1.6,5.6
					c1.6,1.2,0.9,8.1,0.8,10.3c-0.3,6-1,12-1.3,18c-0.5,10.9-0.7,25.4,8.1,33.5c4.8,4.5,11.2,6.4,17.7,6.4c4.4,0,8.8-0.6,13.1-1.6
					c5.5-1.3,6.1-4.6,6.7-10.1c2.1-19.4-11.4-35-24.4-48.8c3.5,1.3,7,2.6,10.5,3.6c4.3,1.3,8.9,2.7,13.6,3.4
					c6.2,3.1,12.4,6.1,18.5,9.3c33.1,17.1,63.1,38.9,80.9,72.5C2156.9,480.8,2162,477.9,2160.2,474.5z M690.6,435.5
					c-2.3,1.9-4.6,3.8-6.8,5.7c-1.1,0.9-4.2,3.3-8.1,6.6c-3.6-2.9-6.1-7.7-7.9-11.4c-3.9-8.1-6.6-17-8.2-25.8
					c-1.7-8.9-2.6-18.3-1.5-27.4c0.7-6.2,2.4-14.7,8.4-18.1c6.3-3.6,14.8-0.9,18.8,5c5.1,7.6,6.4,17.2,6.9,26.1
					C693,409.5,691.4,422.5,690.6,435.5z M696.1,444.3c11.4-3,25.1-1.9,34.4,0.7c7.3,2,17.4,6,20,14c1.7,5.4,5,15.1,0.4,20.1
					c-8.2,9-27.4,0.7-36.1-3.2c-11.5-5.2-25.3-12.1-33.2-22.4c0.1-0.4,0.1-0.7,0-1.1c2.3-2.5,5.2-4.5,8.4-5.9c0,0.4,0,0.7,0,1.1
					c0,3.3,4.5,3.7,5.6,1.3c0.2,0.5,0.6,0.9,1.1,1.3c14.2,8.8,29.2,16.2,45,21.6c3.6,1.2,5.2-4.5,1.6-5.7
					c-15.4-5.2-29.8-12.4-43.6-21c-1.6-1-3-0.3-3.8,0.9C696.1,445.3,696.1,444.8,696.1,444.3z M793.2,356.9c-0.5,0.3-1,0.6-1.4,1
					c-2.3,0.1-4.6,0.3-6.8,0.6c-2.9,0.4-7,1.5-9.8,0.3c-3-1.2-4-6.2-4.7-8.8c-2.9-11.3-6.1-26.2,1.4-36.5
					c5.5-7.6,20.7-13.4,29.5-7.7c5.8,3.7,5.1,12.2,4,18C803,335.4,798.1,346.1,793.2,356.9z M842.9,360.4c7.1,2.4,14.5,10,12.3,18.2
					c-1.6,6.2-7.1,10.1-13.2,11.6c-12.4,3.1-23.2-0.9-33.8-7.4c-6.4-3.9-15.1-8.9-20.2-15.3c0.4-0.3,0.8-0.6,1.2-0.8
					c0.1-0.1,0.2-0.2,0.4-0.2c0.6,2.4,4.1,3.8,5.3,1c0.6-1.4,1.2-2.7,1.8-4.1c1.8-0.1,3.6-0.3,5.3-0.6
					C815,360.6,830.1,356.1,842.9,360.4z M916,304c0.6-0.2,1.2-0.4,1.7-0.6c0.4,0.1,0.8,0,1.3-0.1c1.6-0.5,3.3-0.8,5.1-1
					c0,2.5,3.8,4.1,5.6,1.4c0.3-0.5,0.6-1,1-1.6c10.1,0.6,21,4.6,29.2,8.2c6.5,2.8,28.9,12.8,23.4,23.5c-3.1,5.9-11.1,10.8-17.9,9.4
					c-8-1.7-15-6.8-21-12.1c-6.4-5.5-12.2-11.6-18.1-17.6C923.2,310.4,919.9,306.3,916,304z M928.8,293c-3.7,1.4-7.3,2.7-11,4.1
					c-0.5,0.2-1,0.4-1.5,0.6c-5-5.7-6.8-14.2-7.9-21.5c-1.5-10-1.7-20.6,0.3-30.6c1.5-7.8,4.2-18,11.5-22.5
					c4.2-2.6,12.4-5.5,16.7-1.4c4.3,4.1,4.8,11.1,4.8,16.7c0,7.9-1.2,15.8-3,23.5C936.2,272,933.5,283.2,928.8,293z M1066,245.5
					c0.4-0.4,0.8-0.8,1.3-1.3c3.6,1,7.3,2,10.9,3c11.2,3.1,22.8,6.4,33,12.1c8.7,4.9,15.3,11.2,13,22c-3.5,16.2-25.3-2.9-31.2-8
					C1083.7,265.1,1073.4,255.9,1066,245.5z M1065.9,237c-2.9-12.3-1.6-26.6-0.1-38.7c0.9-8.1,2.3-16.4,5.3-24.1
					c1.7-4.5,4.6-11.3,9.9-12.7c6.2-1.6,14.2,4.4,16.8,9.7c4.1,8.1,0.5,18.3-3.2,25.9C1087.4,211.7,1077.2,225,1065.9,237z
					 M1245.9,213.5c12,1.3,24,3.1,35.6,6.7c12.6,4,30.4,11.8,28.7,28.1c-1.9,18.3-27.8,14.9-37.4,5.7
					C1260.9,242.8,1254.9,227,1245.9,213.5z M1255.5,199.7c-1.8,0.9-3.7,1.6-5.6,2.5c-2.1,0.2-4.3,0.5-6.4,0.8
					c3.1-15.5,7-31.4,14.6-45.3c3.6-6.6,8.8-14.9,16.7-16.8c8.6-2.1,18.5,4.1,23.3,11c10.5,14.9-9.2,28.8-20.4,35.8
					C1270.6,192.1,1263.2,196,1255.5,199.7z M1463.6,200.9c-14.1-1.4-28.2-2.5-42.4-3.3c3.3-10.4,10.5-20.3,17.1-27.8
					c9.1-10.3,23.5-24.2,38.7-22.6c7.3,0.8,16.1,5.6,16.7,13.8c0.5,8.1-3.1,16-7.7,22.4C1480.3,191.5,1473.1,197.8,1463.6,200.9z
					 M1603.4,232.7c10.3,6.9,19.6,16.6,27.6,25.7c5.6,6.5,23.6,27.1,11.3,35.1c-31.4,20.6-32.7-38.8-40.4-59.7
					C1602.5,233.6,1603,233.2,1603.4,232.7z M1640,226.1c-6.4,0.6-12.9,0.8-19.4,0.7c-2.3-0.5-4.5-1-6.8-1.5c0.1,0,0.2,0,0.3-0.1
					c13.1-5.2,23.5-17.2,38.2-17.6c3.8-0.1,3.8-6,0-5.9c-15.8,0.5-25.9,12.3-39.8,17.8c-2.4,0.9-2.4,3.9-1.1,5.2
					c-1.8-0.4-3.7-0.8-5.5-1.2c1.9-4.7,4.9-9.2,7.7-13c5.3-7.2,11.9-14.1,19.6-18.8c6.7-4.1,15.8-7.7,23.3-3.6
					c6.7,3.7,12.9,12.4,13.2,20.3C1670.3,222.4,1650.4,225.2,1640,226.1z M1753.7,271c12.2,7.4,21.5,21.8,27.9,34.1
					c3.7,7.2,14.6,29.6,1.1,33.4c-8,2.3-18.9,0-25.5-5c-6.9-5.3-9-13.9-9.1-22.2c0-8.6,1.5-17.1,2.6-25.7c0-0.2,0.1-0.5,0.1-0.7
					c4.3,11.2,7.7,22.8,14.2,32.9c2.1,3.2,7.2,0.2,5.1-3c-7.2-11.2-10.5-24.3-15.7-36.5c-0.5-1.3-1.6-1.9-2.7-1.9
					c0.1-1.3,0.1-2.6,0.1-3.9c0.2-0.2,0.4-0.4,0.6-0.7c0.2-0.4,0.5-0.8,0.7-1.2C1753.3,270.7,1753.5,270.9,1753.7,271z M1795.4,273
					c-9.1-0.4-18.5-1.5-27.5-3.7c-3.8-1.3-7.5-2.6-11.3-3.8c8.3-11.3,20.2-21.7,31.9-28c7.1-3.8,16.7-7.4,24.5-3.1
					c2,1.1,3.9,2.7,5.6,4.5c-0.1,0-0.2,0-0.3,0c-16.2,3.8-30.4,12.4-45,19.8c-3.4,1.7-0.4,6.8,3,5.1c14.2-7.2,28-15.5,43.6-19.2
					c1-0.2,1.6-0.9,1.9-1.6c2.8,4.4,4.5,9.6,4.6,14.5C1826.5,272.8,1806.4,273.4,1795.4,273z M1890.1,326.3c1.9-0.1,3.3-2.2,2.7-3.9
					c1.4,0.6,2.9,1.2,4.3,1.8c9.7,11.5,22.3,28.6,16.6,44.6c-2.1,5.8-6.3,13.6-13.5,13.5c-5.2,0-12.9-3.1-14.6-8.4
					c-2.9-8.8-2.1-19.1-0.8-28.1c0.7-4.6,1.5-9.1,2.8-13.5c0.5-1.6,0.9-3.2,1.7-4.7C1889.7,326.7,1890,326.4,1890.1,326.3z
					 M1937.1,331.4c-3.8,0.1-7.6-0.2-11.4-0.8c-7.8-3.3-15.6-6.6-23.4-9.9c-0.5-0.4-0.9-0.7-1.4-1.1c-1-0.9-2.1-1-3-0.7
					c-2.1-0.9-4.2-1.7-6.3-2.6c2.9-14.3,16-24.1,30.9-24.1c7.9,0,15.7,2.2,22,7.1c5.5,4.2,12.3,10.7,13.9,17.8
					C1960.9,328.5,1945.2,331.3,1937.1,331.4z M2017.4,382.3c14.4,15.8,38.1,35.3,31.6,59.2c-8.9,2.2-20.9,3.8-27.4-3.9
					c-5.2-6.2-5.6-15.3-5.5-23c0.1-8.3,1.2-16.5,1.5-24.7C2017.7,387.5,2017.8,384.8,2017.4,382.3z M2059.3,390.1
					c-1.2-0.1-2.4-0.3-3.6-0.5c-10-4.8-20.2-9.4-30.1-14c-1.6-0.8-3.3-1.5-4.9-2.3c2.4-26.5,47-34.7,58.8-10.4
					C2086.8,377.9,2075.3,391.9,2059.3,390.1z"/>
				<path fill="#303531" d="M683.5,435.9c-0.5,3.8-6.2,2.2-5.7-1.6c1.1-8-0.4-16.7-1.3-24.7c-1-9.2-2.3-18.5-2.3-27.7
					c0-3.8,5.9-3.8,5.9,0C680.3,399.7,686.1,418.2,683.5,435.9z"/>
				<path fill="#303531" d="M782.5,352.6c-1.7-9.1-1.9-18.2-1.9-27.4c0-3.8,5.9-3.8,5.9,0c0,8.7,0.1,17.3,1.7,25.8
					C788.8,354.7,783.1,356.3,782.5,352.6z"/>
				<path fill="#303531" d="M824.6,377.4c-3.1-2-6.5-3.2-10-4.2c-2.6-0.8-6.3-1.9-9-0.8c-3.6,1.4-5.1-4.3-1.6-5.7
					c3.4-1.3,7.6-0.3,11,0.5c4.3,1,8.8,2.7,12.6,5.1C830.8,374.3,827.8,379.4,824.6,377.4z"/>
				<path fill="#303531" d="M921.1,285.9c-6-12.7-7.4-27.7-3.8-41.3c1-3.7,6.7-2.1,5.7,1.6c-3.2,12-2.1,25.5,3.2,36.7
					C927.8,286.3,922.7,289.3,921.1,285.9z"/>
				<path fill="#303531" d="M954,327.7c-6.2-4.6-12.6-8.9-19.5-12.4c-3.4-1.7-0.4-6.8,3-5.1c6.9,3.5,13.3,7.8,19.5,12.4
					C960,324.9,957.1,330,954,327.7z"/>
				<path fill="#303531" d="M1085.7,179.5c-7.7,12.7-11.9,26.4-13.8,41.1c-0.5,3.7-6.4,3.8-5.9,0c2.1-15.7,6.3-30.4,14.6-44
					C1082.6,173.3,1087.7,176.2,1085.7,179.5z"/>
				<path fill="#303531" d="M1109.5,279.4c-8.2-6.6-15.6-13.9-23.1-21.3c-2.7-2.7,1.5-6.9,4.2-4.2c7.4,7.4,14.9,14.7,23.1,21.3
					C1116.6,277.6,1112.4,281.8,1109.5,279.4z"/>
				<path fill="#303531" d="M1282.6,158.2c-7.7,11.3-17.4,21.1-23.1,33.7c-1.6,3.5-6.7,0.5-5.1-3c5.7-12.6,15.4-22.4,23.1-33.7
					C1279.6,152.1,1284.7,155.1,1282.6,158.2z"/>
				<path fill="#303531" d="M1290.9,251.5c-9.9-6.6-19.5-13.9-25.9-24.1c-2-3.2,3.1-6.2,5.1-3c5.8,9.3,14.8,15.9,23.8,22
					C1297.1,248.5,1294.1,253.6,1290.9,251.5z"/>
				<path fill="#303531" d="M1456.3,263.9c-3.4-13-10.3-23.9-18.7-34.2c-2.4-2.9,1.8-7.1,4.2-4.2c9.1,11.1,16.6,22.8,20.3,36.8
					C1462.9,266,1457.2,267.6,1456.3,263.9z"/>
				<path fill="#303531" d="M1466.5,173c-7.6,7.6-14.4,16-23.6,21.7c-3.2,2-6.2-3.1-3-5.1c8.7-5.5,15.3-13.6,22.5-20.8
					C1465,166.1,1469.2,170.3,1466.5,173z"/>
				<path fill="#303531" d="M1627.2,274.1c-8.3-10.2-14.6-21.6-21.7-32.5c-2.1-3.2,3-6.2,5.1-3c6.9,10.5,12.9,21.6,20.8,31.3
					C1633.8,272.8,1629.6,277,1627.2,274.1z"/>
				<path fill="#303531" d="M1894.1,364.2v-28.4c0-3.8,5.9-3.8,5.9,0v28.4C1900,368,1894.1,368,1894.1,364.2z"/>
				<path fill="#303531" d="M1944,313.8c-12.1,1.6-24.1,1.9-36.2,1.9c-3.8,0-3.8-5.9,0-5.9c11.6,0,23.2-0.1,34.7-1.7
					C1946.1,307.6,1947.7,313.3,1944,313.8z"/>
				<path fill="#303531" d="M2034.7,427c-0.7,3.7-6.4,2.2-5.7-1.6c1.4-8-0.7-14.4-6.3-20.2c-2.6-2.7,1.5-6.9,4.2-4.2
					C2034,408.5,2036.5,416.9,2034.7,427z"/>
				<path fill="#303531" d="M2056.7,367.1c-6.9,0-13.7,0.1-20.5,1.7c-3.7,0.9-5.3-4.8-1.6-5.7c7.3-1.7,14.6-1.9,22.1-1.9
					C2060.5,361.2,2060.5,367.1,2056.7,367.1z"/>
			</g>
			<g>
				<path fill="#303531" d="M2447.9,1139.7c6.9-1,13.7-3.2,20.3-5.5c15.1-5.2,69.7-27.6,44.5-50.3c-25.1-22.6-52,13.1-67.2,39.2
					c0-12.1-0.5-24.3-1.8-36.5c-2.3-22.5-6.2-44.8-10.1-67c-3.4-19.6-6.5-39.2-10.2-58.8c13-7.4,25.6-15.6,36.7-25.7
					c11.1-10,22.8-25.7,13.2-40.6c-8.5-13.1-27.5-20-39.6-8.2c-11.1,10.9-14.4,29.8-16.7,44.7c-11-48-25.9-95.1-43.9-140.9
					c10.9-7.5,19.4-19.9,25.4-30.5c8-14.2,15.6-35.1,5.7-50.2c-4.6-7-11.9-12.1-20.5-11.5c-9.2,0.7-17.1,7.8-22.7,14.5
					c-5.5,6.5-9.6,14.1-11.4,22.4c-5.5-12-11.2-24-17.1-35.8c-7.4-14.8-15-29.3-23-43.7c-0.1,0.1-0.3,0.2-0.4,0.3
					c-1.4,1.2-2.8,2.4-4.1,3.7c0,0-0.1,0.1-0.1,0.1c15.6,28.4,30.1,57.3,43.4,86.9c0,5.7,0.8,11.3,2,16.9
					c-8.8-9.4-19.9-16.5-32.3-20.1c-18.2-5.2-35.6,2-46.6,17c-0.8,1-1.1,2.5-0.2,3.6c19.6,26.2,59.5,30.6,89.2,23
					c3.7-0.9,1.8-6.5-1.9-5.6c-26.4,6.8-62.8,3.4-81.1-19c10.4-12.8,24.7-17.3,40.9-12.7c15.2,4.4,28.3,16.2,36.4,29.4
					c1.8,2.9,6.3,0.5,5.3-2.6c-1-3.1-1.9-6.2-2.7-9.3c0.2,0.4,0.4,0.8,0.5,1.3c2.7,6.4,5.3,12.9,7.9,19.3c-2,1-4,1.9-6.1,2.5
					c-3.7,1-1.8,6.6,1.9,5.6c2.2-0.6,4.4-1.5,6.5-2.5c13.3,34.1,24.9,68.9,34.5,104.2c4.7,17.2,8.7,34.6,12.3,52
					c-5.8-12.3-12.5-24.4-21.2-34.8c-10-12-26.3-22-41.5-12.1c-15.4,10-7.1,32.1,3.5,41.9c7.2,6.6,17.9,9.3,27.1,11.4
					c10.4,2.5,21.1,3.8,31.3,7.1c0.2,0.1,0.5,0.1,0.7,0.1c0.8,0.9,1.8,1.2,3,0.9c4.5,23,8.3,46.2,12.3,69.4
					c3.8,22.3,7.2,44.6,9,67.2c0.7,8.5,0.9,16.9,0.9,25.4c-8.9-13.7-18.1-28.1-31.6-37c-7.4-4.9-14.4-5.8-22.6-2.4
					c-5.4,2.3-10.3,6.2-10.5,12.5c-0.1,5.6,4.7,10.6,8.4,14.2c5.8,5.5,12.9,9.8,19.9,13.8c10.4,6,22.2,12.4,34.1,15.8
					c0.5,0.4,1.2,0.7,1.9,0.8c-0.4,8.4-0.9,16.8-1.5,25.2c-2.6,36-5.5,71.9-7,107.9c-4.5-9-11.5-17.4-17.4-24
					c-7.6-8.5-23.3-23.2-35.6-14.8c-5.8,4-8.3,13.1-8.1,19.7c0.2,8.3,6.9,15.2,13,20.1c7.9,6.3,17.1,11,26.2,15.4
					c5.8,2.9,14.2,5.3,18.7,10.2c0.8,0.8,1.7,1,2.5,0.8c0,1.5-0.1,3-0.1,4.5c-0.4,22.4-1.2,44.4-4.6,66.6c-2.4,15-5.7,29.9-9.5,44.6
					c-0.8-5.1-1.4-10.3-2.5-15.4c-2.4-11.9-6.4-24.1-17.2-30.9c-4.4-2.8-11.6-2.6-16.5-1.4c-4.6,1.1-8,4.5-10.5,8.2
					c-5.6,8.6-3.6,21.7,0.7,30.3c4.6,9.4,13.3,16.8,21.5,23.1c5,3.8,11.1,8.6,17.5,10.9c-9.3,30.4-20.6,60.2-31.4,90.1
					c-1.6,4.5-3.3,8.9-5,13.3c-1.3-11.3-6.1-22.9-10.9-31.1c-4.4-7.6-11-15.1-19.6-18c-7.7-2.6-17.5-1.3-24.7,2.3
					c-13.7,6.8-6.5,23.7-0.4,33.1c9,13.9,22.2,26.2,36.4,34.8c2.7,1.6,5.6,3,8.6,4c0.1,0,0.2,0.1,0.4,0.1c-0.3,0.6-0.5,1.3-0.8,1.9
					c-2.4,5.4-4.9,10.7-7.7,15.9c-1.1,2-2.3,4-3.6,5.8c-1.4,1.8-2,1.2-0.8,1.9c-3.3-2-5.9,3.3-2.6,5.3c6.7,4,15.3-13.4,21.1-27.3
					c9.5,5.7,24.4,5.1,34,4.6c16.2-0.9,35.7-4.4,48.3-15.5c11-9.6,8.9-25.9-4.2-32.7c-15.6-8.1-37.8,0.9-52.7,6.6
					c-4.4,1.7-8.8,3.6-13.2,5.5c8-21.2,15.4-42.7,23-64c4.2-11.8,8.2-23.7,11.8-35.6c0.3-0.1,0.5-0.3,0.7-0.5
					c0.4,1.6,0.8,3.1,1.4,4.6c3.1,7,11.2,6.9,17.8,6.4c11.5-0.8,23.5-2.9,32.7-10.4c8.9-7.2,11.1-18.5,8.8-29.3
					c-1.6-7.4-5-14.4-12.7-16.8c-6.7-2.1-14.2,1.3-19.9,4.4c-7.9,4.3-14.9,10-21.5,16.1c5.2-20.2,9.3-40.7,11.7-61.6
					c2.2-18.9,2.1-37.9,2.5-56.9c16,5.3,37.1-1.6,51.2-8.4c14.9-7.2,29.9-20.7,23.6-38.9c-5-14.5-23.5-9.4-33.8-5.1
					c-14.4,6-28.1,14.9-40,25c0.7-16.8,1.8-33.6,2.9-50.4c1.9-26.8,4.5-53.5,5.4-80.2c1-0.8,1.3-2.3,0.9-3.5
					C2446.7,1139.9,2447.3,1139.8,2447.9,1139.7z M2354.4,745.4c0-10,3.7-18.8,9.5-26.7c4.7-6.4,11-12.4,18.8-14.5
					c7.9-2.1,15.3,4.8,18.3,11.5c6.4,13.8-2.2,31.9-9.1,43.8c-5,8.6-12.1,18.6-21,25C2365.7,771.4,2360.2,758.4,2354.4,745.4z
					 M2364.5,943.3c-11.8-6.2-23.2-29.7-6.5-37.3c14.9-6.8,28,7.6,35.8,18.3c7.1,9.8,12.6,20.6,17.6,31.6
					C2395.8,951.7,2379,951,2364.5,943.3z M2366.8,1550.5c-0.5,0.2-1,0.4-1.5,0.5c0.9-1.1,1-2.7-0.4-3.9
					c-12.5-10.4-23.9-21.8-33.7-34.7c-2.3-3-7.2,0.3-4.9,3.3c10.1,13.3,21.9,25.2,34.7,35.9c0.5,0.4,1,0.6,1.6,0.7
					c-2,1.9-0.2,6,3,4.9c0.4-0.1,0.7-0.2,1.1-0.4c-0.4,3.5-1.3,6.9-3,9.9c-0.4,0.1-0.7,0.2-1,0.4c-12.3-4.2-23.2-15.1-31.7-24.4
					c-6.5-7-20.5-22.6-14.5-33.2c3.3-5.9,13.5-5.9,19.2-6c8.4-0.1,15.4,8.2,19.6,14.5C2360.6,1526.1,2366.1,1538.8,2366.8,1550.5z
					 M2413.5,1539c8.6-2.4,18.2-4.1,27-1.7c6.8,1.9,12.1,9.1,10.7,16.2c-1.3,6.7-8.9,11-14.5,13.7c-8.3,3.9-17.4,6-26.4,7.2
					c-8.9,1.3-18.1,1.6-27.1,0.4c-4.1-0.5-9.5-1.4-13.3-3.8c1.8-4.7,3.2-8.4,3.7-9.8c1.1-2.8,2.2-5.5,3.3-8.3
					C2389,1548,2400.8,1542.4,2413.5,1539z M2411,1437.1c0,0.1-0.1,0.3-0.1,0.4c-0.1,0.5-0.3,0.9-0.4,1.4
					c-7.7-2.7-15.2-9.4-20.9-14.3c-9.5-8-16.7-17-17.7-29.7c-0.5-6.2,1.5-12.7,6.8-16.2c7.2-4.7,16.7,0,21.2,5.9
					c8.2,10.8,8.7,26.6,10.7,39.5c0.3,1.8,0.7,3.5,1.1,5.3c-1.1,1-2.2,2-3.3,3C2406.1,1434.5,2408.5,1437.3,2411,1437.1z
					 M2446.6,1408.8c5.2-2.9,13-6.2,18.4-1.9c8.2,6.5,7.5,22.8,2,30.4c-7.4,10.4-22.5,12.1-34.2,12.9c-2.8,0.2-7.8,0.8-9.9-1.6
					c-2-2.4-2.2-6.5-2.8-9.4c-0.5-2.3-1.1-4.5-1.6-6.7c0.2-0.6,0.3-1.1,0.5-1.7C2427.6,1422.7,2436.2,1414.6,2446.6,1408.8z
					 M2430.2,1297.5c-3.5-3-8.4-4.8-12.3-6.7c-7.6-3.7-15.2-7.3-22.4-11.6c-6.9-4.1-14-9.1-18.1-16.1c-3.5-5.9-1.4-15.1,3.3-19.9
					c8.3-8.5,24.9,9.5,29.7,14.8c6,6.6,13.2,15.7,17,25.1c-0.4,0.5-0.8,0.9-1.2,1.4c-2,2.5,0.8,5.6,3.1,4.8c0.4,1.7,0.6,3.4,0.6,5.1
					c0,0.5,0.1,0.9,0.3,1.3C2430.2,1296.2,2430.2,1296.9,2430.2,1297.5z M2463,1262.8c6.8-4.1,13.8-7.7,21.3-10.3
					c5.3-1.8,12.1-3.6,17.4-0.8c5.2,2.8,5.1,11.4,3.9,16.2c-2,8.3-10.8,14.1-17.7,18c-8.8,5-19,8.2-29,9.9
					c-7.2,1.2-15.9,2.2-22.9-0.7c0-0.5,0-1.1,0-1.6c0.1-3.9,0.2-7.8,0.4-11.8C2444.4,1274.4,2454.1,1268.2,2463,1262.8z
					 M2438.2,1136.7c-12.2-3.7-24.3-10.5-34.9-16.8c-6.7-4-31.7-18.6-17.5-27c9.5-5.6,17.5-1.3,25,5.4c8.7,7.8,15.4,17.8,21.9,27.4
					c2.1,3.1,4.2,6.3,6.3,9.4C2438.7,1135.6,2438.4,1136.2,2438.2,1136.7z M2422.3,954.8c-0.4-2.1-0.9-4.2-1.3-6.3
					c0.2-2,0.3-4.1,0.6-6.1c1-8.4,2.4-16.7,4.4-24.9c3.1-12.8,10-35.8,27.5-30.7c8,2.4,17,9.8,17.8,18.6c0.7,8.1-5.5,15.6-10.6,21.1
					C2449.9,938.1,2436,947,2422.3,954.8z M2475,1094.2c6-5.9,14.5-12.6,23.6-11.2c5.8,0.8,14.1,6.5,14.5,12.9
					c0.4,5.4-5.1,10.4-8.9,13.4c-6.3,5.2-13.8,9.2-21.2,12.6c-11.1,5.2-24.3,11-36.8,12.1C2454.1,1119.6,2463.4,1105.7,2475,1094.2z
					"/>
				<path fill="#303531" d="M2378.7,1559.8c-3.4,1.7-0.1,6.6,3.3,4.9c7.3-3.6,16-4.9,23.8-6.6c9.1-2,18.2-3.7,27-6.6
					c3.6-1.2,1.8-6.8-1.9-5.6C2414.1,1551.4,2394.8,1551.8,2378.7,1559.8z"/>
				<path fill="#303531" d="M2426.4,1439.6c9.1-1.3,17.8-4,26.6-6.9c3.6-1.2,1.7-6.8-1.9-5.6c-8.2,2.7-16.4,5.4-25,6.6
					C2422.4,1434.2,2422.7,1440.1,2426.4,1439.6z"/>
				<path fill="#303531" d="M2389.5,1407.5c2.8,2.3,5.1,5.2,7.2,8.2c1.6,2.3,3.8,5.3,3.6,8.2c-0.2,3.8,5.7,3.4,5.9-0.3
					c0.2-3.6-2.1-7.3-4-10.3c-2.4-3.8-5.3-7.5-8.8-10.3C2390.5,1400.6,2386.6,1405,2389.5,1407.5z"/>
				<path fill="#303531" d="M2445.7,1287c14,1.7,28.6-1.7,40.4-9.4c3.2-2.1-0.1-7-3.3-4.9c-10.4,6.8-23.5,10.1-35.9,8.6
					C2443.2,1280.7,2442,1286.5,2445.7,1287z"/>
				<path fill="#303531" d="M2395.6,1269c6.4,4.4,12.4,9.1,18,14.6c2.7,2.7,6.6-1.8,3.9-4.4c-5.5-5.5-11.6-10.1-18-14.6
					C2396.4,1262.4,2392.5,1266.8,2395.6,1269z"/>
				<path fill="#303531" d="M2494.5,1097.1c-9.6,11.3-21.3,19.6-34.6,26.1c-3.4,1.6-1.5,7.3,1.9,5.6c14.2-6.9,26.9-15.6,37.2-27.8
					C2501.4,1098.1,2496.9,1094.1,2494.5,1097.1z"/>
				<path fill="#303531" d="M2392.2,1106.2c8.8,5.6,18.1,10.4,27.5,15.1c3.4,1.7,6.1-3.6,2.6-5.3c-9.4-4.7-18.6-9.5-27.5-15.1
					C2391.6,1098.9,2389,1104.2,2392.2,1106.2z"/>
				<path fill="#303531" d="M2452.3,903.6c-8.3,10.9-14.5,23.2-24.7,32.5c-2.8,2.6,1.7,6.5,4.4,3.9c10.1-9.4,16.4-21.7,24.6-32.5
					C2459,904.5,2454.6,900.6,2452.3,903.6z"/>
				<path fill="#303531" d="M2361.2,925.3c9.4,7.3,19.4,14.1,31.1,16.9c3.7,0.9,4.9-4.9,1.2-5.8c-10.7-2.6-19.8-8.9-28.4-15.6
					C2362.1,918.5,2358.1,922.9,2361.2,925.3z"/>
				<path fill="#303531" d="M2297,772.4c13.4-0.9,25.9,2.2,38.3,7c3.5,1.4,6.2-3.9,2.6-5.3c-13.4-5.2-26.9-8.5-41.3-7.6
					C2292.9,766.7,2293.2,772.6,2297,772.4z"/>
				<path fill="#303531" d="M2380,733.9c-4.8,9.6-10.6,18.8-13.1,29.3c-0.9,3.7,4.9,4.9,5.8,1.2c2.4-10,8-18.8,12.6-27.9
					C2387,733.1,2381.7,730.5,2380,733.9z"/>
			</g>
			<g>
				<path fill="#303531" d="M353.9,1140c-0.4,1.2-0.1,2.7,0.9,3.5c0.9,26.7,3.6,53.4,5.4,80.2c1.2,16.8,2.2,33.6,2.9,50.4
					c-12-10.1-25.6-19.1-40-25c-10.4-4.3-28.8-9.4-33.8,5.1c-6.3,18.2,8.7,31.7,23.6,38.9c14,6.8,35.2,13.8,51.2,8.4
					c0.3,19,0.2,38,2.5,56.9c2.4,20.8,6.5,41.3,11.7,61.6c-6.6-6.1-13.6-11.8-21.5-16.1c-5.7-3.1-13.3-6.5-19.9-4.4
					c-7.6,2.4-11,9.4-12.7,16.8c-2.4,10.8-0.1,22.1,8.8,29.3c9.2,7.4,21.2,9.6,32.7,10.4c6.6,0.4,14.7,0.6,17.8-6.4
					c0.6-1.5,1.1-3,1.4-4.6c0.2,0.2,0.4,0.4,0.7,0.5c3.6,12,7.6,23.8,11.8,35.6c7.6,21.3,14.9,42.8,23,64c-4.4-1.9-8.8-3.8-13.2-5.5
					c-14.9-5.7-37.1-14.7-52.7-6.6c-13.1,6.8-15.1,23.1-4.2,32.7c12.6,11,32.1,14.6,48.3,15.5c9.6,0.5,24.5,1.1,34-4.6
					c5.8,13.9,14.4,31.4,21.1,27.3c3.2-2,0.6-7.3-2.6-5.3c1.2-0.7,0.6-0.1-0.8-1.9c-1.4-1.8-2.5-3.8-3.6-5.8
					c-2.8-5.2-5.4-10.5-7.7-15.9c-0.3-0.6-0.6-1.3-0.8-1.9c0.1,0,0.2,0,0.4-0.1c3-1,5.9-2.3,8.6-4c14.2-8.5,27.4-20.9,36.4-34.8
					c6.1-9.4,13.3-26.3-0.4-33.1c-7.2-3.6-17-4.9-24.7-2.3c-8.5,2.9-15.1,10.4-19.6,18c-4.8,8.2-9.7,19.8-10.9,31.1
					c-1.7-4.4-3.4-8.9-5-13.3c-10.7-29.9-22.1-59.7-31.4-90.1c6.3-2.3,12.4-7.1,17.5-10.9c8.2-6.2,16.9-13.7,21.5-23.1
					c4.2-8.6,6.2-21.8,0.7-30.3c-2.5-3.8-5.9-7.2-10.5-8.2c-4.9-1.1-12.1-1.4-16.5,1.4c-10.8,6.8-14.8,18.9-17.2,30.9
					c-1,5.1-1.7,10.2-2.5,15.4c-3.9-14.7-7.1-29.6-9.5-44.6c-3.5-22.2-4.3-44.2-4.6-66.6c0-1.5-0.1-3-0.1-4.5
					c0.8,0.2,1.7,0.1,2.5-0.8c4.5-4.9,12.9-7.3,18.7-10.2c9-4.4,18.3-9.1,26.2-15.4c6.1-4.9,12.8-11.7,13-20.1
					c0.1-6.6-2.3-15.7-8.1-19.7c-12.3-8.4-27.9,6.4-35.6,14.8c-6,6.6-12.9,15-17.4,24c-1.5-36-4.4-71.9-7-107.9
					c-0.6-8.4-1.2-16.8-1.5-25.2c0.7,0,1.4-0.3,1.9-0.8c11.9-3.5,23.7-9.9,34.1-15.8c6.9-4,14-8.3,19.9-13.8
					c3.8-3.5,8.5-8.6,8.4-14.2c-0.1-6.3-5.1-10.2-10.5-12.5c-8.2-3.4-15.2-2.5-22.6,2.4c-13.5,8.9-22.7,23.4-31.6,37
					c0-8.4,0.2-16.9,0.9-25.4c1.8-22.5,5.2-44.9,9-67.2c4-23.2,7.9-46.3,12.3-69.4c1.1,0.3,2.2,0,3-0.9c0.2,0,0.4-0.1,0.7-0.1
					c10.2-3.3,20.9-4.6,31.3-7.1c9.2-2.2,19.9-4.8,27.1-11.4c10.6-9.8,18.9-31.9,3.5-41.9c-15.2-9.8-31.5,0.2-41.5,12.1
					c-8.7,10.5-15.4,22.5-21.2,34.8c3.6-17.4,7.6-34.8,12.3-52c9.6-35.3,21.1-70.1,34.5-104.2c2.1,1,4.2,1.9,6.5,2.5
					c3.7,1,5.6-4.6,1.9-5.6c-2.1-0.6-4.1-1.4-6.1-2.5c2.6-6.5,5.2-12.9,7.9-19.3c0.2-0.4,0.4-0.8,0.5-1.3c-0.8,3.1-1.7,6.2-2.7,9.3
					c-1,3.1,3.5,5.5,5.3,2.6c8.2-13.2,21.3-25,36.4-29.4c16.2-4.7,30.6-0.1,40.9,12.7c-18.4,22.4-54.8,25.8-81.1,19
					c-3.7-0.9-5.6,4.7-1.9,5.6c29.7,7.6,69.6,3.2,89.2-23c0.8-1.1,0.5-2.6-0.2-3.6c-10.9-14.9-28.4-22.2-46.6-17
					c-12.4,3.6-23.5,10.7-32.3,20.1c1.2-5.6,2-11.3,2-16.9c13.2-29.6,27.8-58.5,43.4-86.9c0,0-0.1-0.1-0.1-0.1
					c-1.3-1.3-2.7-2.5-4.1-3.7c-0.1-0.1-0.3-0.2-0.4-0.3c-7.9,14.4-15.6,28.9-23,43.7c-5.9,11.8-11.6,23.8-17.1,35.8
					c-1.9-8.2-6-15.8-11.4-22.4c-5.6-6.7-13.5-13.8-22.7-14.5c-8.6-0.6-15.9,4.4-20.5,11.5c-9.9,15.1-2.3,36,5.7,50.2
					c6,10.7,14.5,23.1,25.4,30.5c-18,45.8-32.9,92.9-43.9,140.9c-2.3-14.9-5.6-33.8-16.7-44.7c-12-11.8-31.1-4.9-39.6,8.2
					c-9.6,14.8,2.2,30.5,13.2,40.6c11.1,10.1,23.7,18.3,36.7,25.7c-3.8,19.5-6.8,39.2-10.2,58.8c-3.9,22.2-7.8,44.5-10.1,67
					c-1.2,12.2-1.8,24.3-1.8,36.5c-15.2-26.1-42.1-61.8-67.2-39.2c-25.2,22.8,29.5,45.1,44.5,50.3c6.6,2.3,13.4,4.4,20.3,5.5
					C352.7,1139.8,353.3,1139.9,353.9,1140z M429,784.5c-8.8-6.4-16-16.4-21-25c-6.9-11.9-15.5-30-9.1-43.8
					c3.1-6.7,10.4-13.5,18.3-11.5c7.9,2.1,14.2,8,18.8,14.5c5.8,8,9.5,16.8,9.5,26.7C439.8,758.4,434.3,771.4,429,784.5z M388.6,956
					c5-11,10.6-21.8,17.6-31.6c7.8-10.7,20.9-25.1,35.8-18.3c16.8,7.6,5.3,31.1-6.5,37.3C421,951,404.2,951.7,388.6,956z
					 M444.7,1518.1c4.2-6.3,11.2-14.6,19.6-14.5c5.6,0.1,15.9,0.1,19.2,6c6,10.6-8,26.2-14.5,33.2c-8.5,9.3-19.5,20.2-31.7,24.4
					c-0.3-0.2-0.7-0.3-1-0.4c-1.6-3-2.6-6.3-3-9.9c0.4,0.1,0.7,0.3,1.1,0.4c3.1,1.1,5-3,3-4.9c0.5-0.1,1.1-0.3,1.6-0.7
					c12.9-10.7,24.6-22.5,34.7-35.9c2.3-3-2.6-6.3-4.9-3.3c-9.8,12.9-21.2,24.3-33.7,34.7c-1.4,1.2-1.2,2.8-0.4,3.9
					c-0.5-0.2-1-0.3-1.5-0.5C433.9,1538.8,439.4,1526.1,444.7,1518.1z M423.2,1553c1.1,2.8,2.2,5.5,3.3,8.3c0.5,1.3,1.8,5,3.7,9.8
					c-3.9,2.5-9.2,3.3-13.3,3.8c-9,1.2-18.2,0.8-27.1-0.4c-9-1.3-18.2-3.4-26.4-7.2c-5.6-2.6-13.2-7-14.5-13.7
					c-1.4-7.1,3.9-14.3,10.7-16.2c8.8-2.4,18.4-0.7,27,1.7C399.2,1542.4,411,1548,423.2,1553z M391.7,1432.4c-1.1-1-2.2-2-3.3-3
					c0.4-1.7,0.8-3.5,1.1-5.3c2-12.9,2.5-28.6,10.7-39.5c4.5-6,14-10.6,21.2-5.9c5.4,3.5,7.3,10,6.8,16.2
					c-1,12.8-8.2,21.7-17.7,29.7c-5.8,4.9-13.3,11.5-20.9,14.3c-0.1-0.5-0.3-0.9-0.4-1.4c0-0.1-0.1-0.3-0.1-0.4
					C391.5,1437.3,393.9,1434.5,391.7,1432.4z M381.1,1430.7c0.2,0.6,0.3,1.1,0.5,1.7c-0.6,2.2-1.2,4.4-1.6,6.7
					c-0.6,2.9-0.8,7.1-2.8,9.4c-2.1,2.4-7.1,1.8-9.9,1.6c-11.7-0.8-26.7-2.5-34.2-12.9c-5.5-7.6-6.1-23.9,2-30.4
					c5.4-4.3,13.1-1,18.4,1.9C363.8,1414.6,372.4,1422.7,381.1,1430.7z M369.7,1295.6c0.2-0.4,0.3-0.8,0.3-1.3
					c0-1.7,0.3-3.4,0.6-5.1c2.3,0.8,5.1-2.4,3.1-4.8c-0.4-0.5-0.8-0.9-1.2-1.4c3.8-9.4,11-18.5,17-25.1c4.8-5.3,21.3-23.3,29.7-14.8
					c4.7,4.8,6.7,14,3.3,19.9c-4.1,7.1-11.2,12-18.1,16.1c-7.3,4.3-14.8,7.9-22.4,11.6c-3.9,1.9-8.8,3.7-12.3,6.7
					C369.8,1296.9,369.8,1296.2,369.7,1295.6z M363.4,1281.8c0.1,3.9,0.3,7.8,0.4,11.8c0,0.5,0,1.1,0,1.6c-7,2.9-15.7,2-22.9,0.7
					c-10-1.7-20.1-4.9-29-9.9c-6.9-3.9-15.7-9.7-17.7-18c-1.1-4.8-1.3-13.5,3.9-16.2c5.3-2.8,12.1-1,17.4,0.8
					c7.5,2.6,14.6,6.2,21.3,10.3C345.9,1268.2,355.6,1274.4,363.4,1281.8z M361,1135.1c2.1-3.1,4.2-6.3,6.3-9.4
					c6.5-9.6,13.3-19.6,21.9-27.4c7.4-6.7,15.5-11,25-5.4c14.3,8.4-10.8,23.1-17.5,27c-10.6,6.3-22.7,13.1-34.9,16.8
					C361.6,1136.2,361.3,1135.6,361,1135.1z M339.4,926.6c-5.1-5.5-11.3-13.1-10.6-21.1c0.8-8.8,9.8-16.2,17.8-18.6
					c17.5-5.2,24.4,17.9,27.5,30.7c2,8.2,3.3,16.5,4.4,24.9c0.2,2,0.4,4,0.6,6.1c-0.4,2.1-0.9,4.2-1.3,6.3
					C364,947,350.1,938.1,339.4,926.6z M353.8,1134.1c-12.5-1.2-25.7-6.9-36.8-12.1c-7.4-3.5-14.8-7.4-21.2-12.6
					c-3.8-3.1-9.3-8-8.9-13.4c0.4-6.4,8.7-12.1,14.5-12.9c9-1.3,17.5,5.3,23.6,11.2C336.6,1105.7,345.9,1119.6,353.8,1134.1z"/>
				<path fill="#303531" d="M421.3,1559.8c3.4,1.7,0.1,6.6-3.3,4.9c-7.3-3.6-16-4.9-23.8-6.6c-9.1-2-18.2-3.7-27-6.6
					c-3.6-1.2-1.8-6.8,1.9-5.6C385.9,1551.4,405.2,1551.8,421.3,1559.8z"/>
				<path fill="#303531" d="M373.6,1439.6c-9.1-1.3-17.8-4-26.6-6.9c-3.6-1.2-1.7-6.8,1.9-5.6c8.2,2.7,16.4,5.4,25,6.6
					C377.6,1434.2,377.3,1440.1,373.6,1439.6z"/>
				<path fill="#303531" d="M410.5,1407.5c-2.8,2.3-5.1,5.2-7.2,8.2c-1.6,2.3-3.8,5.3-3.6,8.2c0.2,3.8-5.7,3.4-5.9-0.3
					c-0.2-3.6,2.1-7.3,4-10.3c2.4-3.8,5.3-7.5,8.8-10.3C409.5,1400.6,413.4,1405,410.5,1407.5z"/>
				<path fill="#303531" d="M354.3,1287c-14,1.7-28.6-1.7-40.4-9.4c-3.2-2.1,0.1-7,3.3-4.9c10.4,6.8,23.5,10.1,35.9,8.6
					C356.8,1280.7,358,1286.5,354.3,1287z"/>
				<path fill="#303531" d="M404.4,1269c-6.4,4.4-12.4,9.1-18,14.6c-2.7,2.7-6.6-1.8-3.9-4.4c5.5-5.5,11.6-10.1,18-14.6
					C403.6,1262.4,407.5,1266.8,404.4,1269z"/>
				<path fill="#303531" d="M305.5,1097.1c9.6,11.3,21.3,19.6,34.6,26.1c3.4,1.6,1.5,7.3-1.9,5.6c-14.2-6.9-26.9-15.6-37.2-27.8
					C298.6,1098.1,303.1,1094.1,305.5,1097.1z"/>
				<path fill="#303531" d="M407.8,1106.2c-8.8,5.6-18.1,10.4-27.5,15.1c-3.4,1.7-6.1-3.6-2.6-5.3c9.4-4.7,18.7-9.5,27.5-15.1
					C408.4,1098.9,411,1104.2,407.8,1106.2z"/>
				<path fill="#303531" d="M347.7,903.6c8.3,10.9,14.5,23.2,24.7,32.5c2.8,2.6-1.7,6.5-4.4,3.9c-10.1-9.4-16.4-21.7-24.6-32.5
					C341,904.5,345.4,900.6,347.7,903.6z"/>
				<path fill="#303531" d="M438.8,925.3c-9.4,7.3-19.4,14.1-31.1,16.9c-3.7,0.9-4.9-4.9-1.2-5.8c10.7-2.6,19.8-8.9,28.4-15.6
					C437.9,918.5,441.9,922.9,438.8,925.3z"/>
				<path fill="#303531" d="M503,772.4c-13.4-0.9-25.9,2.2-38.3,7c-3.5,1.4-6.2-3.9-2.6-5.3c13.4-5.2,26.9-8.5,41.3-7.6
					C507.1,766.7,506.8,772.6,503,772.4z"/>
				<path fill="#303531" d="M420,733.9c4.8,9.6,10.6,18.8,13.1,29.3c0.9,3.7-4.9,4.9-5.8,1.2c-2.4-10-8-18.8-12.6-27.9
					C413,733.1,418.3,730.5,420,733.9z"/>
			</g>
			<path fill="#F9BEB9" d="M2416.1,1624.6c-19.6-5-39.7-5-59.9-5.4c21.3-9.6,41.5-22.6,58.9-38.2c15-13.4,26.6-30.5,28.7-51
				c1.7-17.2-5.6-35.9-21.7-43.6c-29.3-14.1-60.1,16.7-75.4,38.3c-15.1,21.4-22.7,46.7-33.4,70.5c-1.4-6.2-3.3-12.1-5.1-17.6
				c-7.2-22.3-18-44-31.6-63.1c-11.7-16.3-27.4-29.8-47.5-34c-16.9-3.6-36.3,1.7-45.8,16.8c-17.2,27.6,10,61.6,29.8,79.1
				c15.1,13.4,33.1,22.6,50.8,32.1c-23.3-1.2-47.3,1.1-69.8,7c-19.4,5.1-37.6,15-48.8,32.2c-9.4,14.5-11.4,34.5-0.6,48.8
				c19.6,26,61.1,12.7,84.5,0.4c17.8-9.3,32.7-22.6,47.8-35.6c-9.3,21.3-15.5,44.5-17.9,67.7c-2.1,20,0.8,40.5,13,57
				c10.2,13.9,28.3,22.8,45.4,17.7c31.2-9.2,33.4-52.7,30.2-79c-2.4-20.1-9.8-38.9-16.7-57.8c0,0,0,0,0,0
				c16.6,16.5,36.1,30.9,57,41.6c17.9,9.2,38,13.9,57.8,8.6c16.6-4.5,31.5-18.1,33-35.9C2481.4,1648.9,2441.7,1631.1,2416.1,1624.6z
				 M2330.9,1595.6c10-16.1,19.5-32.8,31.9-47.1c7.8-9.1,21.1-21.7,32.7-11.1c13.5,12.3,3.6,26.2-7.5,35.9
				c-19.9,17.5-44.8,28.1-68.5,39.8C2323.6,1607.5,2327.2,1601.5,2330.9,1595.6z M2231.1,1529.3c13.7-12.1,26.4-0.7,34.9,11.3
				c15.3,21.7,23.1,47.6,32.1,72.4c-5.2-4.6-10.7-8.9-16.2-13.2c-14.9-11.7-30.4-23-43.4-36.9
				C2230.4,1554.3,2219.3,1539.8,2231.1,1529.3z M2191.6,1663.4c-6.4-17.1,8.8-24.9,23.1-28.5c25.7-6.5,52.7-4.5,79.1-4.1
				c-6.2,3.2-12.1,6.8-18.1,10.4c-16.2,9.7-32.3,20.2-49.9,27.3C2214.6,1673,2197.1,1678.2,2191.6,1663.4z M2319.7,1718.1
				c0.3,12-1,30.2-16.8,30.2c-18.3-0.1-20.2-17-18.6-31.6c3-26.4,14.3-50.9,24-75.5c0.8,6.9,2.1,13.8,3.3,20.6
				C2315.1,1680.3,2319.3,1699.1,2319.7,1718.1z M2421.6,1674.8c-6.7,17-23.2,12.7-36.2,5.8c-23.5-12.3-42.3-31.8-61.6-49.8
				c6.7,1.8,13.6,3,20.4,4.3c18.6,3.6,37.6,6.5,55.4,13C2410.9,1652.2,2427.4,1660.1,2421.6,1674.8z"/>
			<path fill="#BBE1D2" d="M2299.9,1825.2c0.4-22.4-27.8-32.8-45.7-36.1c-13.7-2.5-27.6-1.6-41.4-0.9c14.2-7.6,27.5-17.5,38.7-29
				c9.7-9.9,16.9-22.2,17.4-36.4c0.4-11.9-5.5-24.4-17-29c-20.8-8.4-40.6,14.2-50.1,29.8c-9.4,15.4-13.5,33.2-19.7,50
				c-1.3-4.2-2.8-8.2-4.3-11.9c-6-15-14.4-29.4-24.7-41.9c-8.8-10.7-20.2-19.2-34.2-21.2c-11.8-1.7-24.9,2.8-30.7,13.7
				c-10.6,19.8,9.7,41.9,24.2,53c11,8.5,23.8,14,36.4,19.8c-16.1,0.3-32.5,3-47.7,8.1c-13.1,4.4-25.2,12-32.1,24.4
				c-5.8,10.4-6.2,24.2,1.8,33.6c14.7,17,42.6,5.9,58.1-3.6c11.9-7.3,21.6-17.2,31.5-26.9c-5.5,15.1-8.8,31.4-9.5,47.4
				c-0.6,13.8,2.3,27.8,11.3,38.7c7.6,9.1,20.4,14.5,32,10.3c21.1-7.7,20.7-37.7,17.4-55.6c-2.5-13.7-8.3-26.3-13.9-39
				c12.1,10.5,26.1,19.5,40.9,25.8c12.7,5.5,26.8,7.8,40.2,3.2C2290.1,1847.6,2299.7,1837.6,2299.9,1825.2z M2194.3,1773.1
				c6.1-11.5,11.9-23.4,19.8-33.9c5-6.6,13.5-15.9,22-9.1c9.9,7.9,3.7,17.8-3.5,25c-12.9,13-29.5,21.4-45.3,30.5
				C2189.8,1781.6,2192,1777.4,2194.3,1773.1z M2122.6,1732.2c8.9-8.9,18.1-1.7,24.5,6.2c11.5,14.2,18.1,31.7,25.4,48.3
				c-3.8-3-7.8-5.6-11.7-8.3c-10.8-7.3-22-14.4-31.5-23.3C2123.3,1749.4,2114.9,1739.9,2122.6,1732.2z M2125.4,1828.2
				c-7.4,3.6-19.3,8-23.7-1.9c-5.2-11.5,4.9-17.5,14.5-20.7c17.4-5.7,36-5.6,54.2-6.5c-4.1,2.5-8,5.2-12,8
				C2147.7,1814.5,2137.1,1822.5,2125.4,1828.2z M2182,1879.4c-12.6,0.7-14.6-10.8-14.1-21c0.9-18.3,7.7-35.6,13.3-52.9
				c0.8,4.7,2,9.4,3.2,14c3.1,12.6,6.8,25.4,7.9,38.4C2193,1866.2,2192.8,1878.8,2182,1879.4z M2260.3,1823.4
				c-3.8,12-15.3,9.8-24.6,5.7c-16.7-7.4-30.5-19.9-44.7-31.4c4.7,0.9,9.5,1.5,14.2,2c12.9,1.6,26.1,2.7,38.7,6.4
				C2251.9,1808.4,2263.6,1813,2260.3,1823.4z"/>
			<path fill="#303531" d="M2291.2,1756.4c-2.3-6-7.3-8.6-12.9-8.8c-0.7-1.3-2.3-2.2-4-1.1c-1,0.6-1.9,1.3-2.8,2c0,0,0,0-0.1,0
				c-1.1,0.3-1.7,1.1-2,1.9c-6.6,7.1-9,18.2-1.6,25.8c5.5,5.6,15,6,20.2,0C2292.7,1771.1,2293.7,1762.8,2291.2,1756.4z
				 M2285.2,1770.1c-2,4.3-5.9,5.8-10.2,3.8c-8.9-4-6.2-14.3-0.5-20c4.2-1,8.4-0.6,10.8,3.6
				C2287.4,1761.2,2286.9,1766.4,2285.2,1770.1z"/>
			<path fill="#303531" d="M2355,1816c-5.1-11.3-18.6-10.6-28.7-14.3c-3.6-1.3-5.1,4.4-1.6,5.7c0.2,0.1,0.4,0.1,0.6,0.2
				c-7.7,3.7-12,11.2-9.1,20.2c3.2,9.8,13.4,14.2,23,12.7C2349.8,1839,2359.7,1826.5,2355,1816z M2340.7,1834
				c-15,6.3-28.4-16.1-10.9-21.8c1.4-0.5,2-1.6,2-2.8c4.7,1.1,9.5,1.9,13.8,4.3C2355.3,1819,2347.9,1831,2340.7,1834z"/>
			<path fill="#303531" d="M2358.3,1749.2c-6.4-7.9-17.9-12.1-27.7-8.9c-3.3,1.1-2.3,5.9,0.7,5.8c-6.6,7-8,16.9-1.1,24.6
				c7.3,8.2,21.3,6.8,29.2,0.5C2366.9,1765.4,2363.3,1755.2,2358.3,1749.2z M2357.3,1764.5c-3.1,7.1-15,7-20.6,3.8
				c-8.2-4.7-5.3-14.4,0.4-19.6c1.3-1.1,1.1-2.6,0.3-3.7c4.8-0.1,9.5,1.9,13.4,5C2354.7,1753.1,2359.6,1759.2,2357.3,1764.5z"/>
			<path fill="#303531" d="M2361,1789.4h-0.8c-1.6,0-3,1.3-3,3s1.3,3,3,3h0.8c1.6,0,3-1.3,3-3S2362.6,1789.4,2361,1789.4z"/>
			<path fill="#303531" d="M2385.2,1775.8c0.1-1.6-1.4-3-3-3c-1.3,0-2.3,0.8-2.7,1.9c-0.7,0.8-1,1.6-1,2.6c-0.1,1.6,1.4,3,3,3
				c1.3,0,2.3-0.8,2.7-1.9C2384.9,1777.7,2385.1,1776.9,2385.2,1775.8z"/>
			<path fill="#303531" d="M2305.8,1783.9c-3.8,0-3.8,5.9,0,5.9S2309.6,1783.9,2305.8,1783.9z"/>
			<path fill="#303531" d="M2303.7,1837c-0.8-0.7-1.6-1-2.6-1c-1.6-0.1-3,1.4-3,3c0,1.3,0.8,2.3,1.9,2.7c0.8,0.7,1.6,1,2.6,1
				c1.6,0.1,3-1.4,3-3C2305.6,1838.4,2304.8,1837.4,2303.7,1837z"/>
			<path fill="#303531" d="M2324.7,1865.1c-1.2,0-2.1,0.6-2.6,1.6c-0.4,0.3-0.8,0.6-1.1,0.9c-1.2,1.1-1.1,3.1,0,4.2
				c1.2,1.2,3,1.1,4.2,0c0,0,0,0,0.1-0.1c0,0,0.1,0,0.1-0.1c0.4-0.2,0.7-0.5,1.1-0.8c0.8-0.7,1.1-1.7,1.2-2.8
				C2327.8,1866.4,2326.3,1865.1,2324.7,1865.1z"/>
			<path fill="#303531" d="M2373.6,1827.3c-1.4,0-2.7,1.1-2.9,2.5c-1.1,1.1-1.1,3,0,4.1c1.1,1.1,3,1.1,4.2,0
				c0.4-0.4,0.9-0.9,1.2-1.4c0.4-0.7,0.5-1.4,0.5-2.2C2376.5,1828.6,2375.2,1827.3,2373.6,1827.3z"/>
			<path fill="#F9BEB9" d="M2171.3,343.8c-7.3,18.9-9.7,38.9-12.4,58.8c-7-22.2-17.5-43.9-31-63c-11.6-16.4-27.2-30-47.2-34.5
				c-16.8-3.7-36.3,1.4-45.9,16.4c-17.5,27.5,9.5,61.7,29.1,79.4c19.5,17.6,43.7,28.1,66.1,41.5c-6.3,0.7-12.4,1.8-18.1,2.9
				c-23,4.5-45.8,12.7-66.3,24c-17.6,9.7-32.8,23.7-39.4,43.2c-5.6,16.3-2.6,36.2,11.3,47.4c25.4,20.4,62.3-2.7,82.1-20.3
				c15.1-13.4,26.3-30.2,37.9-46.6c-3.9,23-4.5,47.1-1.3,70.2c2.8,19.9,10.4,39.1,26.2,52.2c13.2,11,32.9,15.4,48.3,6.4
				c28.1-16.4,19.8-59.2,10.4-83.9c-7.1-18.7-18.6-35.1-29.7-51.7c20.1,11.7,42.4,20.7,65.1,25.8c19.6,4.4,40.3,4,58.1-6.2
				c15-8.5,26-25.4,23-43c-5.5-32.1-48.4-39.3-74.9-39.3c-20.3,0.1-39.8,5.1-59.4,9.8c0,0,0,0,0,0c18.4-14.5,35-32.2,48.1-51.6
				c11.2-16.7,18.3-36.1,15.3-56.4c-2.5-17.1-14.2-33.4-31.8-37C2203.1,281.7,2180.8,319.1,2171.3,343.8z M2132.4,425
				c-14.8-11.8-30.2-23.2-43-37.2c-8.1-8.9-19-23.5-7.1-33.8c13.8-12,26.4-0.5,34.8,11.7c15.1,21.8,22.6,47.8,31.4,72.7
				C2143.3,433.6,2137.8,429.3,2132.4,425z M2054.8,516.2c-10.4-15.1,2.4-26.3,15.4-33.3c23.3-12.6,50-17.3,75.7-23.3
				c-5.2,4.6-10.1,9.6-15,14.5c-13.3,13.4-26.4,27.5-41.7,38.7C2079.5,519.9,2063.8,529.2,2054.8,516.2z M2183.3,571.3
				c-17.8,4.3-23.7-11.7-25.6-26.3c-3.4-26.3,1.7-52.9,5.3-79c2.4,6.5,5.3,12.9,8.2,19.2c7.8,17.2,16.3,34.5,21.2,52.8
				C2195.6,549.6,2198.6,567.6,2183.3,571.3z M2252.7,450.5c11.9,1.1,29.9,4.6,28,20.3c-2.2,18.2-19.3,18.1-33.6,14.7
				c-25.8-6.1-48.9-20.2-72.1-32.8c6.9,0,13.9-0.5,20.8-0.9C2214.7,450.6,2233.8,448.7,2252.7,450.5z M2221.7,344.2
				c16.1,8.7,9.9,24.5,1.5,36.6c-15,21.9-36.6,38.2-56.7,55.3c2.6-6.5,4.6-13.1,6.7-19.7c5.7-18,10.9-36.5,19.4-53.5
				C2198.1,352.2,2207.8,336.7,2221.7,344.2z"/>
			<path fill="#BBE1D2" d="M2356.8,482.8c-22.2-3-35.9,23.7-41.3,41.1c-4.1,13.3-4.8,27.2-5.8,41c-5.8-15-14.1-29.4-24.2-41.9
				c-8.7-10.8-20.1-19.4-34.1-21.5c-11.7-1.8-24.9,2.6-30.8,13.4c-10.8,19.7,9.3,42,23.7,53.2c14.2,11.2,31.3,17.3,47.4,25.5
				c-4.3,0.8-8.5,1.8-12.3,2.9c-15.6,4.2-30.9,10.8-44.5,19.6c-11.7,7.5-21.4,17.8-25.1,31.5c-3.1,11.5-0.1,25,10,32.1
				c18.4,12.8,42.7-4.7,55.5-17.7c9.8-9.9,16.7-22,23.9-33.8c-1.6,16-0.9,32.6,2.4,48.3c2.8,13.6,9,26.4,20.5,34.7
				c9.6,7,23.3,9.1,33.5,2.1c18.6-12.6,10.9-41.6,3.3-58.2c-5.8-12.7-14.5-23.5-23-34.4c14.3,7.2,30.1,12.5,46,15
				c13.7,2.2,27.9,1,39.7-6.7c9.9-6.5,16.8-18.6,14-30.6c-5.1-21.8-35-25-53.2-23.8c-13.9,0.9-27.1,5.2-40.4,9.2
				c11.9-10.8,22.4-23.7,30.5-37.6c6.9-12,10.9-25.7,7.9-39.5C2377.8,495.2,2369,484.5,2356.8,482.8z M2292.6,581.6
				c-10.7-7.4-21.9-14.6-31.3-23.6c-6-5.7-14.2-15.3-6.5-22.9c9-8.9,18.1-1.5,24.4,6.4c11.4,14.3,17.8,31.8,25,48.5
				C2300.5,587,2296.5,584.3,2292.6,581.6z M2243.4,647.9c-7.8-9.9,0.5-18.2,9-23.6c15.5-9.7,33.6-14.2,51-19.5
				c-3.4,3.4-6.5,7-9.6,10.7c-8.5,9.8-16.9,20.1-26.9,28.5C2260.6,649.3,2250.2,656.4,2243.4,647.9z M2339.1,656.5
				c2.7,7.8,5.6,20.1-4.7,23.3c-12,3.8-16.8-6.9-18.8-16.9c-3.6-17.9-1.3-36.4,0-54.6c2,4.4,4.3,8.6,6.5,12.8
				C2328.2,632.7,2334.8,644.1,2339.1,656.5z M2396.6,606.3c-0.8,12.6-12.5,13.2-22.5,11.5c-18-3.1-34.5-11.8-51-19.5
				c4.8-0.3,9.5-0.9,14.3-1.5c12.9-1.6,26-3.7,39.1-3.3C2384.8,593.9,2397.3,595.5,2396.6,606.3z M2350.2,521.9
				c11.5,5.2,7.9,16.4,2.7,25.1c-9.3,15.7-23.4,28-36.4,40.7c1.5-4.6,2.6-9.2,3.7-13.9c3.1-12.7,5.8-25.6,10.9-37.7
				C2334.4,528.5,2340.3,517.4,2350.2,521.9z"/>
			<path fill="#303531" d="M2287.4,483.3c-6.2,1.6-9.4,6.2-10.2,11.8c-1.4,0.6-2.4,2-1.6,3.8c0.5,1,1.1,2,1.7,3c0,0,0,0,0,0.1
				c0.2,1.1,0.9,1.8,1.7,2.2c6.3,7.3,17,11,25.4,4.6c6.2-4.8,7.8-14.1,2.4-20C2302.1,483.6,2294,481.6,2287.4,483.3z M2300.2,490.9
				c4,2.5,5,6.5,2.6,10.5c-5,8.3-14.9,4.4-19.9-1.8c-0.5-4.3,0.4-8.4,4.9-10.3C2291.7,487.7,2296.8,488.8,2300.2,490.9z"/>
			<path fill="#303531" d="M2354.1,427.1c-11.8,3.7-12.7,17.2-17.5,26.8c-1.7,3.4,3.8,5.6,5.5,2.2c0.1-0.2,0.2-0.4,0.3-0.6
				c2.8,8.1,9.7,13.3,19,11.4c10.1-2.1,15.6-11.6,15.3-21.3C2376.3,434.9,2365.1,423.6,2354.1,427.1z M2370.3,443.4
				c4.5,15.6-19.3,26.3-23,8.2c-0.3-1.4-1.4-2.2-2.5-2.4c1.6-4.6,3.1-9.2,5.9-13.2C2357.1,427,2368.1,435.8,2370.3,443.4z"/>
			<path fill="#303531" d="M2288.1,415.9c-8.6,5.5-14.2,16.3-12.1,26.4c0.7,3.4,5.6,3,5.9,0c6.2,7.4,15.9,9.9,24.3,4
				c9-6.3,9.3-20.3,4-28.9C2305.2,409.3,2294.7,411.6,2288.1,415.9z M2303.3,418.7c6.7,3.9,5.2,15.7,1.3,20.9
				c-5.6,7.6-15,3.6-19.4-2.7c-1-1.4-2.5-1.4-3.6-0.8c0.5-4.8,3-9.2,6.5-12.7C2291.7,419.9,2298.3,415.8,2303.3,418.7z"/>
			<path fill="#303531" d="M2328.4,418l-0.1,0.8c-0.2,1.6,1,3.1,2.6,3.3c1.6,0.2,3.1-1,3.3-2.6l0.1-0.8c0.2-1.6-1-3.1-2.6-3.3
				C2330.1,415.2,2328.6,416.4,2328.4,418z"/>
			<path fill="#303531" d="M2317.8,392.3c-1.6-0.3-3.1,1.1-3.3,2.6c-0.2,1.3,0.5,2.4,1.6,2.9c0.7,0.7,1.5,1.1,2.5,1.3
				c1.6,0.3,3.1-1.1,3.3-2.6c0.2-1.3-0.5-2.4-1.6-2.9C2319.6,392.9,2318.8,392.5,2317.8,392.3z"/>
			<path fill="#303531" d="M2316.4,472.1c-0.5,3.8,5.4,4.5,5.9,0.7C2322.8,469,2316.9,468.3,2316.4,472.1z"/>
			<path fill="#303531" d="M2368.9,480.4c-0.7,0.7-1.1,1.5-1.3,2.5c-0.3,1.6,1.1,3.1,2.6,3.3c1.3,0.2,2.4-0.5,2.9-1.6
				c0.7-0.7,1.1-1.5,1.3-2.5c0.3-1.6-1.1-3.1-2.6-3.3C2370.5,478.7,2369.4,479.4,2368.9,480.4z"/>
			<path fill="#303531" d="M2399.3,462.9c-0.1,1.2,0.4,2.1,1.3,2.7c0.2,0.4,0.5,0.8,0.7,1.2c1,1.3,2.9,1.5,4.1,0.5
				c1.3-1,1.5-2.9,0.5-4.1c0,0,0,0,0-0.1c0,0,0-0.1-0.1-0.1c-0.2-0.4-0.4-0.8-0.7-1.2c-0.6-0.9-1.6-1.3-2.6-1.5
				C2401,460,2399.5,461.4,2399.3,462.9z"/>
			<path fill="#303531" d="M2367.5,409.9c-0.2,1.4,0.8,2.8,2.1,3.2c1,1.2,2.9,1.4,4.1,0.5c1.3-1,1.5-2.9,0.5-4.1
				c-0.4-0.5-0.8-1-1.3-1.3c-0.7-0.4-1.4-0.6-2.2-0.7C2369.2,407.1,2367.7,408.3,2367.5,409.9z"/>
			<path fill="#303531" d="M2357,1691.7c-3.8,0-3.8,5.9,0,5.9S2360.9,1691.7,2357,1691.7z"/>
			<path fill="#F9BEB9" d="M345.2,1681.3c1.5,17.8,16.4,31.4,33,35.9c19.8,5.4,40,0.6,57.8-8.6c20.9-10.7,40.4-25.1,57-41.6
				c0,0,0,0,0,0c-6.9,18.9-14.3,37.7-16.7,57.8c-3.2,26.3-1.1,69.7,30.2,79c17.2,5.1,35.2-3.9,45.4-17.7c12.2-16.5,15-37,13-57
				c-2.4-23.1-8.7-46.3-17.9-67.7c15.1,13,30,26.3,47.8,35.6c23.5,12.2,64.9,25.6,84.5-0.4c10.8-14.3,8.8-34.3-0.6-48.8
				c-11.2-17.2-29.3-27.1-48.8-32.2c-22.6-5.9-46.6-8.2-69.8-7c17.7-9.5,35.6-18.7,50.8-32.1c19.8-17.5,47.1-51.5,29.8-79.1
				c-9.5-15.2-28.9-20.4-45.8-16.8c-20.1,4.3-35.8,17.7-47.5,34c-13.7,19.1-24.4,40.8-31.6,63.1c-1.8,5.5-3.6,11.4-5.1,17.6
				c-10.6-23.8-18.2-49.1-33.4-70.5c-15.3-21.6-46-52.4-75.4-38.3c-16.1,7.8-23.5,26.5-21.7,43.6c2.1,20.4,13.7,37.5,28.7,51
				c17.4,15.6,37.6,28.6,58.9,38.2c-20.1,0.4-40.3,0.4-59.9,5.4C382.2,1631.1,342.5,1648.9,345.2,1681.3z M504.4,1613.1
				c-23.7-11.6-48.6-22.2-68.5-39.8c-11-9.7-21-23.6-7.5-35.9c11.7-10.6,24.9,2,32.7,11.1c12.4,14.3,21.9,31.1,31.9,47.1
				C496.7,1601.5,500.4,1607.5,504.4,1613.1z M585.4,1563.1c-12.9,13.9-28.5,25.2-43.4,36.9c-5.5,4.3-11,8.5-16.2,13.2
				c9-24.8,16.8-50.7,32.1-72.4c8.5-12,21.1-23.4,34.9-11.3C604.7,1539.8,593.6,1554.3,585.4,1563.1z M598.2,1668.6
				c-17.6-7.1-33.7-17.6-49.9-27.3c-5.9-3.6-11.9-7.2-18.1-10.4c26.4-0.5,53.4-2.4,79.1,4.1c14.3,3.6,29.4,11.4,23.1,28.5
				C626.8,1678.2,609.3,1673,598.2,1668.6z M512.2,1661.7c1.2-6.8,2.6-13.7,3.3-20.6c9.7,24.5,21.1,49.1,24,75.5
				c1.6,14.6-0.3,31.6-18.6,31.6c-15.8,0.1-17.1-18.2-16.8-30.2C504.6,1699.1,508.8,1680.3,512.2,1661.7z M424.3,1648.1
				c17.8-6.5,36.8-9.4,55.4-13c6.8-1.3,13.7-2.6,20.4-4.3c-19.3,18-38.1,37.4-61.6,49.8c-13,6.8-29.5,11.2-36.2-5.8
				C396.5,1660.1,413,1652.2,424.3,1648.1z"/>
			<path fill="#BBE1D2" d="M545,1851.5c13.4,4.6,27.4,2.3,40.2-3.2c14.8-6.4,28.8-15.3,40.9-25.8c-5.6,12.7-11.4,25.3-13.9,39
				c-3.3,17.9-3.7,47.9,17.4,55.6c11.6,4.2,24.4-1.2,32-10.3c9.1-10.9,11.9-24.8,11.3-38.7c-0.7-16.1-4-32.3-9.5-47.4
				c9.9,9.7,19.6,19.7,31.5,26.9c15.6,9.5,43.4,20.6,58.1,3.6c8.1-9.3,7.6-23.2,1.8-33.6c-6.9-12.4-18.9-20-32.1-24.4
				c-15.2-5.1-31.6-7.8-47.7-8.1c12.6-5.7,25.4-11.2,36.4-19.8c14.4-11.1,34.7-33.2,24.2-53c-5.8-10.9-18.9-15.4-30.7-13.7
				c-14,2-25.4,10.5-34.3,21.2c-10.3,12.5-18.7,26.9-24.7,41.9c-1.5,3.7-3,7.7-4.3,11.9c-6.2-16.9-10.3-34.6-19.7-50
				c-9.5-15.6-29.2-38.2-50.1-29.8c-11.4,4.6-17.4,17.1-17,29c0.5,14.1,7.7,26.4,17.4,36.4c11.2,11.5,24.6,21.4,38.7,29
				c-13.9-0.7-27.7-1.6-41.4,0.9c-17.9,3.3-46.1,13.7-45.7,36.1C524.2,1837.6,533.8,1847.6,545,1851.5z M636.6,1785.7
				c-15.8-9.1-32.4-17.5-45.3-30.5c-7.1-7.2-13.3-17.2-3.5-25c8.5-6.8,17,2.5,22,9.1c7.9,10.4,13.7,22.4,19.8,33.9
				C631.9,1777.4,634.1,1781.6,636.6,1785.7z M694.6,1755c-9.5,9-20.7,16-31.5,23.3c-4,2.7-8,5.4-11.7,8.3
				c7.3-16.7,13.9-34.1,25.4-48.3c6.4-7.9,15.6-15.1,24.5-6.2C709,1739.9,700.7,1749.4,694.6,1755z M665.5,1807.1
				c-3.9-2.7-7.9-5.5-12-8c18.2,0.9,36.8,0.8,54.2,6.5c9.6,3.1,19.7,9.2,14.5,20.7c-4.5,9.9-16.3,5.5-23.7,1.9
				C686.8,1822.5,676.2,1814.5,665.5,1807.1z M631.7,1857.9c1.1-13,4.8-25.8,7.9-38.4c1.1-4.6,2.3-9.3,3.2-14
				c5.7,17.3,12.4,34.7,13.3,52.9c0.5,10.1-1.5,21.7-14.1,21C631.1,1878.8,631,1866.2,631.7,1857.9z M579.9,1806.1
				c12.6-3.6,25.8-4.8,38.7-6.4c4.7-0.6,9.5-1.1,14.2-2c-14.1,11.5-27.9,24-44.7,31.4c-9.3,4.1-20.8,6.3-24.6-5.7
				C560.3,1813,572,1808.4,579.9,1806.1z"/>
			<path fill="#303531" d="M535.8,1776.3c5.2,6,14.7,5.6,20.2,0c7.4-7.6,5-18.6-1.6-25.8c-0.2-0.9-0.9-1.6-2-1.9c0,0,0,0-0.1,0
				c-0.9-0.8-1.8-1.4-2.8-2c-1.7-1-3.3-0.2-4,1.1c-5.6,0.2-10.6,2.8-12.9,8.8C530.2,1762.8,531.2,1771.1,535.8,1776.3z
				 M538.6,1757.5c2.4-4.2,6.5-4.6,10.8-3.6c5.6,5.7,8.3,16-0.5,20c-4.3,1.9-8.2,0.4-10.2-3.8C537,1766.4,536.6,1761.2,538.6,1757.5
				z"/>
			<path fill="#303531" d="M484.6,1840.6c9.6,1.5,19.7-2.9,23-12.7c3-8.9-1.3-16.4-9.1-20.2c0.2-0.1,0.4-0.1,0.6-0.2
				c3.6-1.3,2-7-1.6-5.7c-10.1,3.7-23.6,2.9-28.7,14.3C464.2,1826.5,474.2,1839,484.6,1840.6z M478.2,1813.7
				c4.3-2.3,9.1-3.2,13.8-4.3c0,1.2,0.6,2.3,2,2.8c17.5,5.8,4.1,28.1-10.9,21.8C476,1831,468.6,1819,478.2,1813.7z"/>
			<path fill="#303531" d="M464.5,1771.3c7.9,6.3,21.8,7.6,29.2-0.5c6.9-7.7,5.5-17.6-1.1-24.6c3,0.1,4-4.8,0.7-5.8
				c-9.8-3.3-21.2,1-27.7,8.9C460.7,1755.2,457,1765.4,464.5,1771.3z M473.1,1750.1c3.9-3.1,8.6-5,13.4-5c-0.8,1-1,2.5,0.3,3.7
				c5.8,5.1,8.7,14.9,0.4,19.6c-5.6,3.2-17.5,3.4-20.6-3.8C464.3,1759.2,469.2,1753.1,473.1,1750.1z"/>
			<path fill="#303531" d="M462.9,1789.4h0.8c1.6,0,3,1.3,3,3s-1.3,3-3,3h-0.8c-1.6,0-3-1.3-3-3S461.3,1789.4,462.9,1789.4z"/>
			<path fill="#303531" d="M439.7,1778.5c0.4,1.1,1.4,1.9,2.7,1.9c1.5,0,3.1-1.3,3-3c-0.1-1-0.4-1.8-1-2.6c-0.4-1.1-1.4-1.9-2.7-1.9
				c-1.5,0-3.1,1.3-3,3C438.8,1776.9,439.1,1777.7,439.7,1778.5z"/>
			<path fill="#303531" d="M518.1,1783.9c3.8,0,3.8,5.9,0,5.9C514.3,1789.8,514.3,1783.9,518.1,1783.9z"/>
			<path fill="#303531" d="M518.3,1839.7c0,1.5,1.3,3.1,3,3c1-0.1,1.8-0.4,2.6-1c1.1-0.4,1.9-1.4,1.9-2.7c0-1.5-1.3-3.1-3-3
				c-1,0.1-1.8,0.4-2.6,1C519.1,1837.4,518.3,1838.4,518.3,1839.7z"/>
			<path fill="#303531" d="M499.2,1865.1c1.2,0,2.1,0.6,2.6,1.6c0.4,0.3,0.8,0.6,1.1,0.9c1.2,1.1,1.1,3.1,0,4.2
				c-1.2,1.2-3,1.1-4.2,0c0,0,0,0-0.1-0.1c0,0-0.1,0-0.1-0.1c-0.4-0.2-0.7-0.5-1.1-0.8c-0.8-0.7-1.1-1.7-1.2-2.8
				C496.1,1866.4,497.7,1865.1,499.2,1865.1z"/>
			<path fill="#303531" d="M450.3,1827.3c1.4,0,2.7,1.1,2.9,2.5c1.1,1.1,1.1,3,0,4.1c-1.1,1.1-3,1.1-4.2,0c-0.4-0.4-0.9-0.9-1.2-1.4
				c-0.4-0.7-0.5-1.4-0.5-2.2C447.4,1828.6,448.7,1827.3,450.3,1827.3z"/>
			<path fill="#F9BEB9" d="M588.9,288.3c-17.5,3.6-29.2,19.9-31.8,37c-3,20.3,4.1,39.7,15.3,56.4c13.1,19.4,29.7,37.1,48.1,51.6
				c0,0,0,0,0,0c-19.6-4.7-39.2-9.7-59.4-9.8c-26.5-0.1-69.4,7.2-74.9,39.3c-3,17.6,8,34.5,23,43c17.9,10.1,38.5,10.6,58.1,6.2
				c22.7-5.1,45-14.1,65.1-25.8c-11.2,16.6-22.6,32.9-29.7,51.7c-9.4,24.7-17.7,67.5,10.4,83.9c15.4,9,35.1,4.7,48.3-6.4
				c15.8-13.1,23.5-32.3,26.2-52.2c3.2-23.1,2.7-47.2-1.3-70.2c11.6,16.5,22.8,33.2,37.9,46.6c19.8,17.6,56.7,40.6,82.1,20.3
				c13.9-11.2,16.9-31.1,11.3-47.4c-6.6-19.4-21.8-33.5-39.4-43.2c-20.5-11.3-43.4-19.4-66.3-24c-5.6-1.1-11.8-2.2-18.1-2.9
				c22.4-13.4,46.6-23.9,66.1-41.5c19.7-17.7,46.6-51.9,29.1-79.4c-9.6-15.1-29.1-20.2-45.9-16.4c-20,4.5-35.7,18-47.2,34.5
				c-13.4,19.1-24,40.8-31,63c-2.8-19.9-5.1-39.9-12.4-58.8C643.1,319.1,620.8,281.7,588.9,288.3z M675.5,438.3
				c8.8-24.9,16.3-50.9,31.4-72.7c8.4-12.1,20.9-23.6,34.8-11.7c11.9,10.3,1,24.9-7.1,33.8c-12.8,14-28.2,25.5-43,37.2
				C686.1,429.3,680.6,433.6,675.5,438.3z M734.7,512.8c-15.3-11.2-28.4-25.3-41.7-38.7c-4.9-4.9-9.8-9.9-15-14.5
				c25.7,6,52.4,10.7,75.7,23.3c13,7,25.8,18.2,15.4,33.3C760.1,529.2,744.4,519.9,734.7,512.8z M631.5,538
				c5-18.3,13.5-35.5,21.2-52.8c2.8-6.3,5.8-12.7,8.2-19.2c3.6,26.2,8.7,52.7,5.3,79c-1.9,14.6-7.8,30.6-25.6,26.3
				C625.3,567.6,628.3,549.6,631.5,538z M628.1,451.8c6.9,0.4,13.9,0.9,20.8,0.9c-23.2,12.6-46.3,26.7-72.1,32.8
				c-14.3,3.4-31.4,3.5-33.6-14.7c-1.9-15.7,16-19.1,28-20.3C590.1,448.7,609.2,450.6,628.1,451.8z M631.2,362.9
				c8.5,17,13.7,35.5,19.4,53.5c2.1,6.6,4.2,13.3,6.7,19.7c-20.1-17.1-41.7-33.4-56.7-55.3c-8.3-12.1-14.6-28,1.5-36.6
				C616.1,336.7,625.8,352.2,631.2,362.9z"/>
			<path fill="#BBE1D2" d="M443.6,506.8c-3,13.8,1,27.5,7.9,39.5c8.1,13.9,18.6,26.8,30.5,37.6c-13.3-4-26.5-8.3-40.4-9.2
				c-18.2-1.2-48,2-53.2,23.8c-2.8,12,4,24.1,14,30.6c11.9,7.7,26.1,8.9,39.7,6.7c15.9-2.6,31.6-7.8,46-15
				c-8.5,11-17.2,21.8-23,34.4c-7.6,16.6-15.3,45.6,3.3,58.2c10.2,6.9,23.9,4.8,33.5-2.1c11.5-8.3,17.6-21.2,20.5-34.7
				c3.3-15.7,4-32.3,2.4-48.3c7.2,11.9,14.2,23.9,23.9,33.8c12.8,13,37.1,30.6,55.5,17.7c10.1-7.1,13.1-20.6,10-32.1
				c-3.7-13.7-13.5-24-25.1-31.5c-13.6-8.7-28.9-15.4-44.5-19.6c-3.8-1-8-2.1-12.3-2.9c16-8.2,33.1-14.3,47.4-25.5
				c14.3-11.3,34.4-33.5,23.7-53.2c-5.9-10.8-19.1-15.2-30.8-13.4c-14,2.1-25.4,10.8-34.1,21.5c-10.1,12.5-18.4,26.9-24.2,41.9
				c-1-13.8-1.7-27.7-5.8-41c-5.4-17.4-19-44.1-41.3-41.1C454.9,484.5,446.1,495.2,443.6,506.8z M519.7,590
				c7.2-16.7,13.6-34.2,25-48.5c6.3-7.9,15.5-15.3,24.4-6.4c7.7,7.6-0.5,17.2-6.5,22.9c-9.4,9.1-20.6,16.2-31.3,23.6
				C527.4,584.3,523.4,587,519.7,590z M557,644c-10-8.4-18.4-18.7-26.9-28.5c-3.1-3.6-6.3-7.3-9.6-10.7c17.4,5.3,35.5,9.8,51,19.5
				c8.6,5.4,16.9,13.7,9,23.6C573.7,656.4,563.3,649.3,557,644z M501.9,621.2c2.2-4.2,4.5-8.4,6.5-12.8c1.3,18.2,3.6,36.7,0,54.6
				c-2,9.9-6.8,20.7-18.8,16.9c-10.4-3.3-7.4-15.5-4.7-23.3C489.1,644.1,495.8,632.7,501.9,621.2z M447.4,593.6
				c13.1-0.4,26.1,1.7,39.1,3.3c4.7,0.6,9.5,1.2,14.3,1.5c-16.5,7.7-33,16.4-51,19.5c-10,1.7-21.7,1-22.5-11.5
				C426.6,595.5,439.1,593.9,447.4,593.6z M492.8,536.1c5.1,12.1,7.8,25,10.9,37.7c1.1,4.6,2.3,9.3,3.7,13.9
				c-13-12.7-27.1-24.9-36.4-40.7c-5.2-8.7-8.7-19.9,2.7-25.1C483.6,517.4,489.5,528.5,492.8,536.1z"/>
			<path fill="#303531" d="M517.1,488.7c-5.3,5.9-3.8,15.2,2.4,20c8.4,6.4,19.1,2.7,25.4-4.6c0.8-0.3,1.5-1,1.7-2.2c0,0,0,0,0-0.1
				c0.6-1,1.2-2,1.7-3c0.8-1.8-0.2-3.3-1.6-3.8c-0.8-5.5-4-10.2-10.2-11.8C529.9,481.6,521.8,483.6,517.1,488.7z M536.1,489.4
				c4.5,1.9,5.4,5.9,4.9,10.3c-5,6.3-14.9,10.2-19.9,1.8c-2.4-4-1.4-8.1,2.6-10.5C527.1,488.8,532.2,487.7,536.1,489.4z"/>
			<path fill="#303531" d="M447.3,445.5c-0.3,9.7,5.3,19.3,15.3,21.3c9.2,1.9,16.2-3.3,19-11.4c0.1,0.2,0.2,0.4,0.3,0.6
				c1.7,3.4,7.2,1.2,5.5-2.2c-4.9-9.6-5.7-23-17.5-26.8C458.8,423.6,447.6,434.9,447.3,445.5z M473.2,436c2.8,4,4.3,8.6,5.9,13.2
				c-1.1,0.2-2.2,0.9-2.5,2.4c-3.7,18.1-27.5,7.4-23-8.2C455.8,435.8,466.8,427,473.2,436z"/>
			<path fill="#303531" d="M513.7,417.4c-5.3,8.6-5,22.6,4,28.9c8.4,5.9,18.1,3.4,24.3-4c0.3,2.9,5.2,3.4,5.9,0
				c2.1-10.1-3.5-21-12.1-26.4C529.2,411.6,518.7,409.3,513.7,417.4z M535.8,423.4c3.5,3.5,6,7.9,6.5,12.7c-1.1-0.7-2.6-0.7-3.6,0.8
				c-4.4,6.3-13.8,10.4-19.4,2.7c-3.8-5.2-5.4-17,1.3-20.9C525.7,415.8,532.3,419.9,535.8,423.4z"/>
			<path fill="#303531" d="M495.5,418l0.1,0.8c0.2,1.6-1,3.1-2.6,3.3c-1.6,0.2-3.1-1-3.3-2.6l-0.1-0.8c-0.2-1.6,1-3.1,2.6-3.3
				C493.8,415.2,495.3,416.4,495.5,418z"/>
			<path fill="#303531" d="M503.7,393.6c-1.1,0.6-1.7,1.6-1.6,2.9c0.2,1.5,1.7,2.9,3.3,2.6c1-0.2,1.8-0.6,2.5-1.3
				c1.1-0.6,1.7-1.6,1.6-2.9c-0.2-1.5-1.7-2.9-3.3-2.6C505.1,392.5,504.3,392.9,503.7,393.6z"/>
			<path fill="#303531" d="M507.5,472.1c0.5,3.8-5.4,4.5-5.9,0.7C501.2,469,507,468.3,507.5,472.1z"/>
			<path fill="#303531" d="M452.1,478.9c-1.5,0.2-2.9,1.7-2.6,3.3c0.2,1,0.6,1.8,1.3,2.5c0.6,1.1,1.6,1.7,2.9,1.6
				c1.5-0.2,2.9-1.7,2.6-3.3c-0.2-1-0.6-1.8-1.3-2.5C454.5,479.4,453.4,478.7,452.1,478.9z"/>
			<path fill="#303531" d="M424.6,462.9c0.1,1.2-0.4,2.1-1.3,2.7c-0.2,0.4-0.5,0.8-0.7,1.2c-1,1.3-2.9,1.5-4.1,0.5
				c-1.3-1-1.4-2.9-0.5-4.1c0,0,0,0,0-0.1c0,0,0-0.1,0.1-0.1c0.2-0.4,0.4-0.8,0.7-1.2c0.6-0.9,1.6-1.3,2.6-1.5
				C422.9,460,424.5,461.4,424.6,462.9z"/>
			<path fill="#303531" d="M456.4,409.9c0.2,1.4-0.8,2.8-2.1,3.2c-1,1.2-2.9,1.4-4.1,0.5c-1.3-1-1.5-2.9-0.5-4.1
				c0.4-0.5,0.8-1,1.3-1.3c0.7-0.4,1.4-0.6,2.2-0.7C454.7,407.1,456.2,408.3,456.4,409.9z"/>
			<path fill="#303531" d="M466.9,1691.7c3.8,0,3.8,5.9,0,5.9C463.1,1697.6,463.1,1691.7,466.9,1691.7z"/>
		</g>
	</g>
	<g>
		<g>
			<circle fill="#F9BEB9" cx="1847.5" cy="2406.9" r="14"/>
			<circle fill="#F9BEB9" cx="1926.2" cy="2416.9" r="28.8"/>
			<circle fill="#F9BEB9" cx="1847.5" cy="2471.5" r="26.7"/>
			<path fill="#303531" d="M1864.1,2401.8c-2-5.1-6.2-7.3-10.9-7.4c-0.6-1.1-1.9-1.8-3.4-1c-0.8,0.5-1.6,1.1-2.4,1.7c0,0,0,0-0.1,0
				c-0.9,0.3-1.5,0.9-1.7,1.6c-5.5,6-7.6,15.4-1.3,21.8c4.6,4.8,12.7,5.1,17.1,0C1865.3,2414.2,1866.2,2407.1,1864.1,2401.8z
				 M1859,2413.3c-1.7,3.6-5,4.9-8.6,3.2c-7.5-3.4-5.2-12.1-0.4-16.9c3.6-0.8,7.1-0.5,9.1,3.1
				C1860.8,2405.8,1860.5,2410.2,1859,2413.3z"/>
			<path fill="#303531" d="M1918,2452.2c-4.3-9.6-15.7-8.9-24.2-12.1c-3-1.1-4.3,3.7-1.3,4.8c0.2,0.1,0.4,0.1,0.5,0.2
				c-6.5,3.2-10.2,9.5-7.7,17.1c2.7,8.3,11.3,12,19.4,10.7C1913.6,2471.6,1922,2461.1,1918,2452.2z M1905.9,2467.4
				c-12.7,5.3-24-13.6-9.2-18.5c1.2-0.4,1.7-1.4,1.7-2.3c4,0.9,8,1.6,11.7,3.6C1918.3,2454.7,1912.1,2464.8,1905.9,2467.4z"/>
			<path fill="#303531" d="M1920.8,2395.6c-5.4-6.7-15.1-10.3-23.4-7.5c-2.8,0.9-1.9,5,0.6,4.9c-5.6,5.9-6.7,14.3-0.9,20.8
				c6.2,6.9,18,5.8,24.7,0.4C1928.1,2409.3,1925,2400.8,1920.8,2395.6z M1919.9,2408.6c-2.6,6-12.7,5.9-17.4,3.2
				c-7-4-4.5-12.2,0.4-16.6c1.1-1,1-2.2,0.3-3.1c4.1-0.1,8,1.6,11.3,4.2C1917.8,2399,1921.9,2404.1,1919.9,2408.6z"/>
			<path fill="#303531" d="M1923.1,2429.7h-0.7c-1.4,0-2.5,1.1-2.5,2.5s1.1,2.5,2.5,2.5h0.7c1.4,0,2.5-1.1,2.5-2.5
				S1924.5,2429.7,1923.1,2429.7z"/>
			<path fill="#303531" d="M1943.6,2418.2c0.1-1.4-1.2-2.5-2.5-2.5c-1.1,0-1.9,0.7-2.3,1.6c-0.6,0.7-0.8,1.3-0.9,2.2
				c-0.1,1.4,1.2,2.5,2.5,2.5c1.1,0,1.9-0.7,2.3-1.6C1943.3,2419.7,1943.5,2419.1,1943.6,2418.2z"/>
			<path fill="#303531" d="M1876.4,2425c-3.2,0-3.2,5,0,5S1879.7,2425,1876.4,2425z"/>
			<path fill="#303531" d="M1874.6,2469.9c-0.7-0.6-1.3-0.8-2.2-0.9c-1.4-0.1-2.5,1.2-2.5,2.5c0,1.1,0.7,1.9,1.6,2.3
				c0.7,0.6,1.3,0.8,2.2,0.9c1.4,0.1,2.5-1.2,2.5-2.5C1876.3,2471.1,1875.6,2470.3,1874.6,2469.9z"/>
			<path fill="#303531" d="M1892.4,2493.7c-1,0-1.7,0.5-2.2,1.3c-0.3,0.2-0.7,0.5-0.9,0.7c-1,0.9-0.9,2.6,0,3.5c1,1,2.5,0.9,3.5,0
				c0,0,0,0,0.1,0c0,0,0.1,0,0.1-0.1c0.3-0.2,0.6-0.4,0.9-0.7c0.7-0.6,0.9-1.4,1-2.3C1895,2494.8,1893.7,2493.7,1892.4,2493.7z"/>
			<path fill="#303531" d="M1933.8,2461.7c-1.2,0-2.3,0.9-2.5,2.1c-0.9,1-0.9,2.6,0,3.5c1,1,2.6,1,3.5,0c0.4-0.4,0.8-0.7,1-1.2
				c0.3-0.6,0.4-1.2,0.4-1.9C1936.3,2462.8,1935.1,2461.7,1933.8,2461.7z"/>
		</g>
		<g>
			<circle fill="#F9BEB9" cx="952.5" cy="2406.9" r="14"/>
			<circle fill="#F9BEB9" cx="873.8" cy="2416.9" r="28.8"/>
			<circle fill="#F9BEB9" cx="952.5" cy="2471.5" r="26.7"/>
			<path fill="#303531" d="M938.5,2418.6c4.4,5.1,12.4,4.7,17.1,0c6.2-6.4,4.2-15.8-1.3-21.8c-0.2-0.7-0.7-1.4-1.7-1.6
				c0,0,0,0-0.1,0c-0.7-0.6-1.5-1.2-2.4-1.7c-1.4-0.9-2.8-0.2-3.4,1c-4.7,0.1-9,2.4-10.9,7.4
				C933.8,2407.1,934.7,2414.2,938.5,2418.6z M940.9,2402.7c2-3.6,5.5-3.9,9.1-3.1c4.8,4.8,7,13.5-0.4,16.9
				c-3.6,1.6-6.9,0.4-8.6-3.2C939.5,2410.2,939.2,2405.8,940.9,2402.7z"/>
			<path fill="#303531" d="M895.2,2472.9c8.1,1.2,16.7-2.5,19.4-10.7c2.5-7.6-1.1-13.9-7.7-17.1c0.2-0.1,0.4-0.1,0.5-0.2
				c3-1.1,1.7-5.9-1.3-4.8c-8.5,3.1-19.9,2.5-24.2,12.1C878,2461.1,886.4,2471.6,895.2,2472.9z M889.8,2450.2
				c3.6-2,7.7-2.7,11.7-3.6c0,1,0.5,1.9,1.7,2.3c14.8,4.9,3.5,23.8-9.2,18.5C887.9,2464.8,881.7,2454.7,889.8,2450.2z"/>
			<path fill="#303531" d="M878.2,2414.3c6.7,5.3,18.5,6.4,24.7-0.4c5.8-6.5,4.7-14.9-0.9-20.8c2.5,0.1,3.3-4,0.6-4.9
				c-8.3-2.8-18,0.8-23.4,7.5C875,2400.8,871.9,2409.3,878.2,2414.3z M885.5,2396.4c3.3-2.6,7.3-4.3,11.3-4.2
				c-0.7,0.9-0.8,2.1,0.3,3.1c4.9,4.3,7.3,12.6,0.4,16.6c-4.8,2.7-14.8,2.8-17.4-3.2C878.1,2404.1,882.2,2399,885.5,2396.4z"/>
			<path fill="#303531" d="M876.9,2429.7h0.7c1.4,0,2.5,1.1,2.5,2.5s-1.1,2.5-2.5,2.5h-0.7c-1.4,0-2.5-1.1-2.5-2.5
				S875.5,2429.7,876.9,2429.7z"/>
			<path fill="#303531" d="M857.3,2420.4c0.4,0.9,1.2,1.6,2.3,1.6c1.3,0,2.6-1.1,2.5-2.5c-0.1-0.9-0.3-1.5-0.9-2.2
				c-0.4-0.9-1.2-1.6-2.3-1.6c-1.3,0-2.6,1.1-2.5,2.5C856.5,2419.1,856.7,2419.7,857.3,2420.4z"/>
			<path fill="#303531" d="M923.6,2425c3.2,0,3.2,5,0,5S920.3,2425,923.6,2425z"/>
			<path fill="#303531" d="M923.7,2472.2c0,1.3,1.1,2.6,2.5,2.5c0.9-0.1,1.5-0.3,2.2-0.9c0.9-0.4,1.6-1.2,1.6-2.3
				c0-1.3-1.1-2.6-2.5-2.5c-0.9,0.1-1.5,0.3-2.2,0.9C924.4,2470.3,923.7,2471.1,923.7,2472.2z"/>
			<path fill="#303531" d="M907.6,2493.7c1,0,1.7,0.5,2.2,1.3c0.3,0.2,0.7,0.5,0.9,0.7c1,0.9,0.9,2.6,0,3.5c-1,1-2.5,0.9-3.5,0
				c0,0,0,0,0,0c0,0-0.1,0-0.1-0.1c-0.3-0.2-0.6-0.4-0.9-0.7c-0.7-0.6-0.9-1.4-1-2.3C905,2494.8,906.3,2493.7,907.6,2493.7z"/>
			<path fill="#303531" d="M866.2,2461.7c1.2,0,2.3,0.9,2.5,2.1c0.9,1,0.9,2.6,0,3.5c-1,1-2.6,1-3.5,0c-0.4-0.4-0.8-0.7-1-1.2
				c-0.3-0.6-0.4-1.2-0.4-1.9C863.7,2462.8,864.9,2461.7,866.2,2461.7z"/>
		</g>
		<g>
			<path fill="#303531" d="M1069.5,2538c-3.2,2-6.7,3-10.3,3c-2.4,0-4.5-1.1-6.2-3.2c-1.7-2.1-2.6-4.4-2.6-6.8
				c0-17,0.7-39.6,2.1-67.9c1.2-30.1,1.8-52.6,1.8-67.6v-2.1c-1.2-12.7-1.8-22.2-1.8-28.5c0-19.2,3.5-28.8,10.6-28.8
				c2,0,3.8,0.8,5.3,2.3c1.5,1.5,2.3,3.3,2.3,5.3c0,2.4-0.3,6.3-0.9,11.5c-0.6,5.1-0.9,8.9-0.9,11.5c0,13.5,0.1,25.8,0.3,36.7
				c0.2,10.7,0.3,22.8,0.3,36.4c-1,3-1.5,7.3-1.5,12.7v3.6l-0.6,23.9c-0.4,7.1-0.6,15.2-0.6,24.2c0,13.9,3.3,20.9,10,20.9
				c0.4,0,1.1,0,2-0.2c0.9-0.1,2.2-0.2,3.8-0.2c1.8-0.2,4.1-0.3,7-0.3c10.9,0,16.4,3,16.4,9.1c0,2-0.9,3.7-2.7,5.2
				c-1.8,1.4-4,2.3-6.7,2.7C1089.2,2539.3,1080.2,2538,1069.5,2538z"/>
			<path fill="#303531" d="M1151.9,2537.6c-4.4-3.3-8.1-7.8-10.9-13.5c-5.9-12.3-9.5-25.8-10.9-40.3c-1.8-13.7-2.7-27-2.7-39.7
				c0-2.4,0.1-4.4,0.3-6.1v-5.5c0-1-0.1-1.5-0.3-1.5v-5.5l0.3-21.2c0.2-6.5,1-16.8,2.4-30.9c1-9.7,3.3-19.1,7-28.2
				c1.4-4,3.2-7.1,5.5-9.2c2.2-2.1,4.7-3.2,7.6-3.2c8.1,0,15.4,1.5,21.8,4.4c6.5,2.9,11.9,7,16.4,12.3c4,5.1,7.5,11.3,10.3,18.6
				c2.8,7.4,4.8,15.2,6.1,23.5c1.2,8.5,1.8,17.5,1.8,27v2.4c0,6.3,0.1,11.9,0.3,17l0.3,17.3c0,58.2-13.5,87.3-40.6,87.3
				C1161.2,2542.6,1156.3,2540.9,1151.9,2537.6z M1175.2,2525.5c3-2.9,5.4-6.9,7-12c3.8-10.3,6.2-21.4,7-33.3
				c1-10.3,1.5-19.2,1.5-26.7c0-9.1-0.7-21-2.1-35.8c-1.2-15.6-1.8-27.2-1.8-34.8v-5.5c-0.4-7.7-3-14.3-7.7-20
				c-4.7-5.7-10.6-8.5-17.4-8.5c-6.9,0-11.4,3.9-13.6,11.8c-2,6.3-3,14.3-3,24.2c0,3.8,0.1,7.1,0.3,9.7v8.2l-0.6,13.9
				c-0.4,4.2-0.6,8.9-0.6,13.9c0,10.9,0.3,21.7,0.9,32.4c0.8,15.2,2.8,29.9,6.1,44.2c3.2,15,8,22.4,14.2,22.4
				C1168.9,2529.9,1172.2,2528.4,1175.2,2525.5z"/>
			<path fill="#303531" d="M1263.4,2535.9c0-23.2-2.2-47.3-6.5-72.1c-4.3-24.8-11.2-55.3-20.5-91.2c-0.4-2-1.3-5.2-2.7-9.4
				c-3.6-11.3-5.5-18.5-5.5-21.5c0-1.8,0.8-3.4,2.3-4.8c1.5-1.4,3.2-2.1,5-2.1c3,0,5.9,2.5,8.5,7.6c2.6,4.8,5,11.4,7.3,19.5
				c2.2,8.2,4.6,18.3,7.3,30.5c2.4,11.5,5.4,29.2,8.8,53l1.8,11.8l3.6,27c0.8,7.5,1.5,12.8,2.1,16.1c4.2-22.2,9.7-54.3,16.4-96.4
				c5.5-36,9.3-60.5,11.5-73.6h6.7c1.8,0,3.4,0.7,4.8,2c1.4,1.3,2.1,2.9,2.1,4.7c0,7.3-0.9,15.1-2.6,23.5
				c-1.7,8.4-4.3,18.4-7.7,30.2c-2.8,10.1-4.7,17.7-5.6,22.7c-0.9,5.1-1.8,13-2.6,23.9c-1.6,24.4-4.1,46.4-7.6,65.8
				c-2.2,11.7-5.2,20.9-8.8,27.6c-3.6,6.7-7.8,10-12.4,10L1263.4,2535.9z"/>
			<path fill="#303531" d="M1353.5,2538c-2.1-1.8-3.3-4-3.5-6.7v-7.9v-6.1c-0.2-1.8-0.3-3.9-0.3-6.4c0-4.2-0.3-10.7-0.9-19.4
				l-0.6-19.4c0-9.9,0.3-24.6,0.9-44.2c0.8-17.6,1.2-32.3,1.2-44.2c0-2.8-0.3-7.1-0.9-12.7c-0.6-5.9-0.9-10.1-0.9-12.7
				c0-14.3,4.2-21.5,12.7-21.5c6.7,0,14.4,1.3,23.2,3.9c8.8,2.6,13.2,5.8,13.2,9.4c0,2-0.9,3.9-2.6,5.6c-1.7,1.7-3.8,3.1-6.2,4.1
				c-8.5-3-16.2-5-23-6.1c0.2,3,0.3,7.4,0.3,13c0,8.1-0.1,15.4-0.3,21.8c-0.6,9.7-0.9,17-0.9,21.8l0.9,4.8l4.8-0.3
				c1.6-0.2,3.6-0.3,6.1-0.3c9.7,0,14.5,2.8,14.5,8.5c0,2.2-0.9,4.1-2.7,5.6s-4.1,2.3-7,2.3c-3.6,0-6.5-0.2-8.5-0.6h-7.6
				c0.4,5.3,0.6,12.9,0.6,23c0,10.1-0.1,19.2-0.3,27.3c-0.6,12.3-0.9,21.5-0.9,27.6c0,11.3,0.2,17,0.6,17l10-0.3
				c3.4-0.2,7.6-0.3,12.4-0.3c7.7,0,11.5,2.4,11.5,7.3c0,2.8-1.3,5-3.8,6.5c-2.5,1.5-5.6,2.3-9.2,2.3h-25.8
				C1358,2540.8,1355.7,2539.9,1353.5,2538z"/>
			<path fill="#303531" d="M1504.6,2534.4c2.2-4.2,3.3-21.4,3.3-51.5c0-7.1-0.5-14.7-1.5-23l-0.9-8.8c-0.6-5.5-0.9-9.6-0.9-12.4
				v-7.9c-2-5-5.7-14.4-11.1-28.2c-5.4-13.7-9.7-25.3-12.9-34.5c-3.8-10.7-5.8-18-5.8-21.8v-1.5l7-5.2c3.4,0.4,7.1,4.8,10.9,13.3
				c3.2,7.5,6.8,18.2,10.8,32.1c3.9,13.9,5.9,21.3,5.9,22.1c0.8-2.2,2.4-9.8,4.8-22.7c2.4-12.9,5.2-24.3,8.2-34.2
				c3.4-9.9,7-14.8,10.6-14.8c2,0,3.8,0.6,5.3,1.8c1.5,1.2,2.3,2.7,2.3,4.5c0,10.3-2.8,24.8-8.5,43.6c-6.1,20.4-9.1,35.2-9.1,44.2
				v91.2c0,13.5-3.3,20.3-10,20.3C1509.7,2541.1,1506.8,2538.8,1504.6,2534.4z"/>
			<path fill="#303531" d="M1594.9,2537.6c-4.4-3.3-8.1-7.8-10.9-13.5c-5.9-12.3-9.5-25.8-10.9-40.3c-1.8-13.7-2.7-27-2.7-39.7
				c0-2.4,0.1-4.4,0.3-6.1v-5.5c0-1-0.1-1.5-0.3-1.5v-5.5l0.3-21.2c0.2-6.5,1-16.8,2.4-30.9c1-9.7,3.3-19.1,7-28.2
				c1.4-4,3.2-7.1,5.5-9.2c2.2-2.1,4.7-3.2,7.6-3.2c8.1,0,15.4,1.5,21.8,4.4c6.5,2.9,11.9,7,16.4,12.3c4,5.1,7.5,11.3,10.3,18.6
				c2.8,7.4,4.8,15.2,6.1,23.5c1.2,8.5,1.8,17.5,1.8,27v2.4c0,6.3,0.1,11.9,0.3,17l0.3,17.3c0,58.2-13.5,87.3-40.6,87.3
				C1604.2,2542.6,1599.3,2540.9,1594.9,2537.6z M1618.2,2525.5c3-2.9,5.4-6.9,7-12c3.8-10.3,6.2-21.4,7-33.3
				c1-10.3,1.5-19.2,1.5-26.7c0-9.1-0.7-21-2.1-35.8c-1.2-15.6-1.8-27.2-1.8-34.8v-5.5c-0.4-7.7-3-14.3-7.7-20
				c-4.8-5.7-10.6-8.5-17.4-8.5c-6.9,0-11.4,3.9-13.6,11.8c-2,6.3-3,14.3-3,24.2c0,3.8,0.1,7.1,0.3,9.7v8.2l-0.6,13.9
				c-0.4,4.2-0.6,8.9-0.6,13.9c0,10.9,0.3,21.7,0.9,32.4c0.8,15.2,2.8,29.9,6.1,44.2c3.2,15,8,22.4,14.2,22.4
				C1611.9,2529.9,1615.2,2528.4,1618.2,2525.5z"/>
			<path fill="#303531" d="M1702.5,2538.2c-3.8-2.1-7-5.2-9.4-9.2c-4.8-8.5-8-18.1-9.4-28.8c-1.4-9.3-2.1-20.4-2.1-33.3
				c-0.6-21.8-0.9-48.5-0.9-80l-0.3-23.3c-0.2-1.2-0.3-3.2-0.3-6.1c-0.4-7.7-0.6-12.3-0.6-13.9c1.8-4.2,3.9-6.4,6.4-6.4
				s4.6,1.8,6.5,5.5c1.9,3.6,2.9,7.6,2.9,11.8v82.4c0,8.1,0.7,18.8,2.1,32.1c1.4,16.6,2.1,27.3,2.1,32.1c0,15,6.4,22.4,19.1,22.4
				c14.5,0,21.8-54.3,21.8-163v-17v-2.7c-0.2-0.6-0.3-1.4-0.3-2.4c0-2.4,0.6-4.2,1.7-5.3c1.1-1.1,3.3-1.7,6.5-1.7
				c2.6,0,4.7,0.8,6.2,2.3c1.5,1.5,2.5,3.3,2.9,5.3c0.2,1.2,0.3,3.5,0.3,7c0,3.2-0.3,8.4-0.9,15.5c-0.8,5.9-1.2,10.9-1.2,15.2
				c0,4.7-0.2,8.8-0.6,12.4l-0.6,12.7v2.4c0.2,0.8,0.3,1.7,0.3,2.7c0,89.7-13,134.5-39.1,134.5
				C1710.7,2541.4,1706.3,2540.3,1702.5,2538.2z"/>
		</g>
	</g>
</g>
</svg>
